<svg width="163" height="51" viewBox="0 0 163 51" fill="none" xmlns="http://www.w3.org/2000/svg">
<path d="M0 25.0662C0 11.2225 11.2225 0 25.0662 0L42.5365 0C46.7315 0 50.1323 3.40076 50.1323 7.5958V25.0662C50.1323 38.9098 38.9098 50.1323 25.0662 50.1323C11.2225 50.1323 0 38.9098 0 25.0662Z" fill="white" style="fill:white;fill-opacity:1;"/>
<path opacity="0.5" d="M33.7955 27.1612L34.1399 27.8606C34.312 28.205 34.7532 28.5278 35.1191 28.5923L35.5818 28.6677C36.9915 28.9044 37.3143 29.9374 36.3135 30.9489L35.8831 31.3794C35.5926 31.6699 35.4419 32.2295 35.528 32.6384L35.5818 32.8966C35.9692 34.5968 35.0653 35.2532 33.5911 34.3601L33.279 34.1664C32.9024 33.9404 32.2783 33.9404 31.9016 34.1664L31.5896 34.3601C30.1046 35.2532 29.2115 34.5968 29.5988 32.8966L29.6526 32.6384C29.7387 32.2402 29.5881 31.6699 29.2975 31.3794L28.8671 30.9489C27.8664 29.9267 28.1892 28.9044 29.5988 28.6677L30.0616 28.5923C30.4382 28.5278 30.8686 28.205 31.0408 27.8606L31.3851 27.1612C32.0523 25.8161 33.1284 25.8161 33.7955 27.1612Z" fill="#000D33" style="fill:#000D33;fill:color(display-p3 0.0000 0.0498 0.2000);fill-opacity:1;"/>
<path d="M30.643 13.2373H21.6255C17.7086 13.2373 15.3735 15.5724 15.3735 19.4893V28.5068C15.3735 32.4237 17.7086 34.7587 21.6255 34.7587H27.3072C27.6838 34.7587 27.9528 34.3714 27.9098 33.9947C27.8667 33.5858 27.8883 33.1016 28.0174 32.542C28.0389 32.4667 28.0174 32.3806 27.9528 32.3161L27.7161 32.0793C26.8014 31.1539 26.4678 30.0348 26.7907 29.0125C27.1242 28.001 28.0497 27.2908 29.3302 27.0756L29.653 27.0218L29.9436 26.4407C30.5354 25.2355 31.5039 24.5361 32.5907 24.5361C33.6775 24.5361 34.646 25.2355 35.2378 26.4407L35.3992 26.7743C35.4746 26.9357 35.6252 27.0433 35.7974 27.0756C35.8942 27.0971 35.9911 27.1186 36.0879 27.1402C36.4645 27.237 36.895 26.9357 36.895 26.5376V19.4893C36.895 15.5724 34.5599 13.2373 30.643 13.2373ZM30.7183 20.7268L28.2326 23.9335C27.9205 24.3316 27.4793 24.5899 26.9736 24.6437C26.4786 24.7082 25.9728 24.5683 25.5855 24.2563L23.6162 22.7283C23.5409 22.6637 23.4548 22.6637 23.4118 22.6745C23.3688 22.6745 23.2934 22.696 23.2289 22.7821L20.6678 26.1071C20.5064 26.3116 20.2697 26.4192 20.0222 26.4192C19.85 26.4192 19.6778 26.3654 19.5272 26.247C19.1721 25.978 19.1075 25.4722 19.3765 25.1171L21.9376 21.7921C22.2496 21.3939 22.6908 21.1357 23.1966 21.0711C23.7023 21.0065 24.1973 21.1464 24.5955 21.4585L26.5647 23.008C26.64 23.0726 26.7153 23.0618 26.7691 23.0618C26.8122 23.0618 26.8875 23.0403 26.9521 22.9542L29.4378 19.7475C29.7068 19.3924 30.2126 19.3279 30.5677 19.6077C30.9335 19.8767 30.9873 20.3824 30.7183 20.7268Z" fill="#000D33" style="fill:#000D33;fill:color(display-p3 0.0000 0.0498 0.2000);fill-opacity:1;"/>
<path d="M63.2515 26.5898V11.5996H69.2476C70.3475 11.5996 71.2664 11.7639 72.0042 12.0925C72.7419 12.4212 73.2953 12.8739 73.6642 13.4507C74.0398 14.0275 74.2276 14.6915 74.2276 15.4427C74.2276 16.0262 74.1068 16.5393 73.8654 16.982C73.6306 17.4247 73.3087 17.7868 72.8996 18.0685C72.4971 18.3502 72.0343 18.5481 71.5112 18.6621V18.813C72.0813 18.8398 72.6179 19.0008 73.1209 19.2959C73.6239 19.591 74.0297 20.0069 74.3382 20.5434C74.6535 21.0733 74.8111 21.7071 74.8111 22.4449C74.8111 23.2363 74.6132 23.9473 74.2175 24.5777C73.8285 25.2015 73.2517 25.6945 72.4871 26.0566C71.7225 26.4121 70.7768 26.5898 69.65 26.5898H63.2515ZM66.4105 24.0043H69.0061C69.8847 24.0043 70.5253 23.8332 70.9277 23.4912C71.3368 23.1491 71.5414 22.6964 71.5414 22.133C71.5414 21.7172 71.4408 21.3516 71.2396 21.0364C71.0451 20.7145 70.7634 20.463 70.3945 20.2819C70.0256 20.1008 69.5863 20.0102 69.0765 20.0102H66.4105V24.0043ZM66.4105 17.8774H68.7647C69.2006 17.8774 69.5863 17.8002 69.9216 17.646C70.2637 17.4917 70.532 17.2737 70.7265 16.9921C70.921 16.7036 71.0182 16.3616 71.0182 15.9659C71.0182 15.4293 70.8271 14.9967 70.4448 14.6681C70.0692 14.3327 69.5293 14.165 68.825 14.165H66.4105V17.8774ZM79.2478 11.5996V26.5898H76.1391V11.5996H79.2478ZM88.2922 21.8111V15.3421H91.401V26.5898H88.413V24.5475H88.2922C88.0374 25.1981 87.6182 25.728 87.0347 26.1371C86.4512 26.5395 85.7369 26.7374 84.8918 26.7307C84.1406 26.7307 83.4766 26.563 82.8998 26.2277C82.3297 25.8856 81.8837 25.3993 81.5617 24.7689C81.2465 24.1384 81.0889 23.3839 81.0889 22.5052V15.3421H84.1976V21.962C84.1976 22.6193 84.3753 23.1424 84.7308 23.5314C85.0863 23.9137 85.5591 24.1015 86.1493 24.0948C86.5249 24.0948 86.8737 24.011 87.1956 23.8433C87.5176 23.6689 87.7792 23.4107 87.9804 23.0686C88.1883 22.7266 88.2922 22.3074 88.2922 21.8111ZM98.3629 26.8112C97.2093 26.8112 96.2133 26.5764 95.3749 26.1069C94.5365 25.6374 93.8926 24.9701 93.4433 24.1049C93.0006 23.233 92.7793 22.2034 92.7793 21.0163C92.7793 19.8627 93.0006 18.8499 93.4433 17.978C93.8926 17.1061 94.5231 16.4253 95.3346 15.9357C96.1529 15.4461 97.112 15.2013 98.212 15.2013C98.9565 15.2013 99.6506 15.322 100.295 15.5634C100.938 15.7982 101.502 16.1537 101.985 16.6299C102.468 17.0994 102.843 17.6929 103.111 18.4106C103.38 19.1215 103.514 19.9566 103.514 20.9157V21.7608H94.0167V19.8392H102.005L100.556 20.3422C100.556 19.7721 100.469 19.2758 100.295 18.8533C100.12 18.4307 99.8586 18.1054 99.5098 17.8774C99.1677 17.6426 98.7418 17.5253 98.2321 17.5253C97.7224 17.5253 97.2898 17.6426 96.9343 17.8774C96.5855 18.1121 96.3172 18.4307 96.1294 18.8331C95.9416 19.2356 95.8477 19.6983 95.8477 20.2215V21.5797C95.8477 22.19 95.9551 22.7132 96.1697 23.1491C96.3843 23.5784 96.6828 23.9104 97.0651 24.1451C97.4541 24.3732 97.9001 24.4872 98.4031 24.4872C98.7519 24.4872 99.0671 24.4369 99.3488 24.3363C99.6305 24.2357 99.872 24.0881 100.073 23.8936C100.281 23.6991 100.435 23.4644 100.536 23.1894L103.413 23.3805C103.272 24.0713 102.977 24.675 102.528 25.1914C102.085 25.7012 101.512 26.1002 100.808 26.3886C100.103 26.6703 99.2885 26.8112 98.3629 26.8112ZM104.902 26.5898V11.5996H110.808C111.941 11.5996 112.907 11.8176 113.705 12.2535C114.51 12.6828 115.124 13.2797 115.546 14.0443C115.976 14.8089 116.19 15.6909 116.19 16.6902C116.19 17.6829 115.976 18.5581 115.546 19.316C115.117 20.0739 114.493 20.6675 113.675 21.0968C112.864 21.5193 111.881 21.7306 110.727 21.7306H106.965V19.1953H110.214C110.825 19.1953 111.328 19.088 111.723 18.8734C112.126 18.6588 112.424 18.3636 112.619 17.988C112.82 17.6125 112.921 17.1798 112.921 16.6902C112.921 16.1872 112.82 15.7512 112.619 15.3824C112.424 15.0068 112.126 14.715 111.723 14.5071C111.321 14.2992 110.815 14.1952 110.204 14.1952H108.061V26.5898H104.902ZM117.528 26.5898V15.3421H120.637V26.5898H117.528ZM119.078 13.9035C118.615 13.9035 118.219 13.7492 117.89 13.4407C117.562 13.1321 117.398 12.7599 117.398 12.3239C117.398 11.888 117.562 11.5191 117.89 11.2173C118.219 10.9088 118.615 10.7545 119.078 10.7545C119.547 10.7545 119.946 10.9088 120.275 11.2173C120.603 11.5191 120.768 11.888 120.768 12.3239C120.768 12.7599 120.603 13.1321 120.275 13.4407C119.946 13.7492 119.547 13.9035 119.078 13.9035ZM125.587 11.5996V26.5898H122.478V11.5996H125.587ZM132.488 26.8112C131.355 26.8112 130.372 26.5697 129.541 26.0868C128.716 25.5972 128.078 24.9198 127.629 24.0546C127.186 23.1827 126.965 22.1699 126.965 21.0163C126.965 19.8493 127.186 18.8331 127.629 17.9679C128.078 17.096 128.716 16.4186 129.541 15.9357C130.372 15.4461 131.355 15.2013 132.488 15.2013C133.629 15.2013 134.611 15.4461 135.436 15.9357C136.268 16.4186 136.905 17.096 137.348 17.9679C137.797 18.8331 138.022 19.8493 138.022 21.0163C138.022 22.1699 137.797 23.1827 137.348 24.0546C136.905 24.9198 136.268 25.5972 135.436 26.0868C134.611 26.5697 133.629 26.8112 132.488 26.8112ZM132.508 24.3765C133.025 24.3765 133.458 24.2323 133.806 23.9439C134.155 23.6488 134.417 23.2464 134.591 22.7366C134.772 22.2269 134.863 21.6467 134.863 20.9962C134.863 20.3389 134.772 19.7587 134.591 19.2557C134.417 18.7527 134.155 18.3569 133.806 18.0685C133.458 17.7801 133.025 17.6359 132.508 17.6359C131.985 17.6359 131.546 17.7801 131.191 18.0685C130.842 18.3569 130.577 18.7527 130.396 19.2557C130.221 19.7587 130.134 20.3389 130.134 20.9962C130.134 21.6467 130.221 22.2269 130.396 22.7366C130.577 23.2464 130.842 23.6488 131.191 23.9439C131.546 24.2323 131.985 24.3765 132.508 24.3765Z" fill="white" style="fill:white;fill-opacity:1;"/>
<path d="M64.4299 40.1186C64.4208 40.237 64.3708 40.3371 64.2797 40.4191C64.1978 40.501 64.1022 40.542 63.9929 40.542C63.8654 40.542 63.7607 40.501 63.6788 40.4191C63.6059 40.3371 63.5695 40.237 63.5695 40.1186V31.4048C63.5695 31.2864 63.6105 31.1863 63.6924 31.1043C63.7744 31.0224 63.8791 30.9814 64.0065 30.9814C64.1158 30.9814 64.2114 31.0224 64.2934 31.1043C64.3844 31.1863 64.4299 31.2864 64.4299 31.4048V40.1186ZM70.0707 33.3989C70.6716 33.3989 71.1497 33.5218 71.5048 33.7676C71.869 34.0044 72.1285 34.3322 72.2833 34.751C72.4472 35.1607 72.5291 35.616 72.5291 36.1168V40.1323C72.5291 40.2415 72.4882 40.3371 72.4062 40.4191C72.3243 40.501 72.2287 40.542 72.1194 40.542C71.9919 40.542 71.8918 40.501 71.8189 40.4191C71.7461 40.3371 71.7096 40.2415 71.7096 40.1323V36.1578C71.7096 35.7936 71.6505 35.4612 71.5321 35.1607C71.4137 34.8603 71.218 34.619 70.9448 34.4369C70.6807 34.2548 70.3302 34.1637 69.8931 34.1637C69.5016 34.1637 69.1283 34.2548 68.7732 34.4369C68.4272 34.619 68.1449 34.8603 67.9264 35.1607C67.7079 35.4612 67.5986 35.7936 67.5986 36.1578V40.1323C67.5986 40.2415 67.5576 40.3371 67.4757 40.4191C67.3937 40.501 67.2981 40.542 67.1889 40.542C67.0614 40.542 66.9612 40.501 66.8884 40.4191C66.8155 40.3371 66.7791 40.2415 66.7791 40.1323V34.0135C66.7791 33.9042 66.8155 33.8086 66.8884 33.7267C66.9703 33.6447 67.0705 33.6037 67.1889 33.6037C67.3072 33.6037 67.4028 33.6447 67.4757 33.7267C67.5576 33.8086 67.5986 33.9042 67.5986 34.0135V35.1607L67.2845 35.6524C67.3027 35.3611 67.3937 35.0834 67.5576 34.8193C67.7306 34.5461 67.9492 34.3048 68.2132 34.0954C68.4773 33.8769 68.7686 33.7085 69.0873 33.5901C69.4151 33.4626 69.7429 33.3989 70.0707 33.3989ZM74.4446 33.4125C74.5174 33.4125 74.5902 33.4353 74.6631 33.4808C74.7359 33.5263 74.7906 33.5946 74.827 33.6857L77.2171 39.3674L77.0396 39.4767L79.4843 33.6857C79.5572 33.5036 79.6892 33.4171 79.8804 33.4262C79.9715 33.4262 80.058 33.4581 80.1399 33.5218C80.2219 33.5764 80.2629 33.6584 80.2629 33.7676C80.2629 33.8223 80.2537 33.8678 80.2355 33.9042C80.2264 33.9315 80.2173 33.9634 80.2082 33.9998L77.5313 40.2825C77.4584 40.4464 77.3355 40.5329 77.1625 40.542C77.0805 40.5511 76.9986 40.5329 76.9166 40.4874C76.8438 40.4327 76.7892 40.3644 76.7528 40.2825L74.0621 33.9998C74.053 33.9816 74.0439 33.9543 74.0348 33.9179C74.0257 33.8815 74.0212 33.845 74.0212 33.8086C74.0212 33.7085 74.0576 33.6174 74.1304 33.5354C74.2033 33.4535 74.308 33.4125 74.4446 33.4125ZM84.9259 40.6786C84.2248 40.6786 83.6056 40.5283 83.0684 40.2279C82.5312 39.9274 82.1123 39.5085 81.8119 38.9713C81.5114 38.4341 81.3611 37.8058 81.3611 37.0865C81.3611 36.3126 81.5114 35.6524 81.8119 35.1061C82.1214 34.5598 82.5175 34.141 83.0001 33.8496C83.4918 33.5491 84.0108 33.3989 84.5571 33.3989C84.9577 33.3989 85.3447 33.4717 85.718 33.6174C86.1005 33.754 86.4374 33.9634 86.7287 34.2457C87.0292 34.5188 87.2659 34.8557 87.4389 35.2564C87.6211 35.657 87.7212 36.1214 87.7394 36.6495C87.7303 36.7587 87.6848 36.8543 87.6028 36.9363C87.5209 37.0091 87.4253 37.0455 87.316 37.0455H81.8392L81.6753 36.308H87.0565L86.879 36.4719V36.1988C86.8425 35.7708 86.706 35.4066 86.4692 35.1061C86.2325 34.8056 85.9457 34.578 85.6088 34.4232C85.2719 34.2684 84.9213 34.191 84.5571 34.191C84.284 34.191 84.0017 34.2457 83.7103 34.3549C83.4281 34.4642 83.1686 34.6372 82.9318 34.8739C82.7042 35.1016 82.5175 35.3975 82.3718 35.7617C82.2262 36.1168 82.1533 36.5402 82.1533 37.0319C82.1533 37.5691 82.2626 38.0562 82.4811 38.4933C82.6996 38.9304 83.0138 39.2764 83.4235 39.5313C83.8423 39.7863 84.3386 39.9137 84.9122 39.9137C85.2309 39.9137 85.5177 39.8682 85.7727 39.7771C86.0276 39.6861 86.2507 39.5677 86.4419 39.422C86.6331 39.2672 86.7925 39.1079 86.9199 38.944C87.0201 38.8621 87.1203 38.8211 87.2204 38.8211C87.3115 38.8211 87.3889 38.8575 87.4526 38.9304C87.5254 39.0032 87.5619 39.0851 87.5619 39.1762C87.5619 39.2855 87.5163 39.3811 87.4253 39.463C87.1521 39.7908 86.797 40.0776 86.36 40.3235C85.9229 40.5602 85.4449 40.6786 84.9259 40.6786ZM92.7851 33.3989C93.386 33.3989 93.8641 33.5218 94.2192 33.7676C94.5834 34.0044 94.8429 34.3322 94.9977 34.751C95.1616 35.1607 95.2435 35.616 95.2435 36.1168V40.1323C95.2435 40.2415 95.2025 40.3371 95.1206 40.4191C95.0386 40.501 94.943 40.542 94.8338 40.542C94.7063 40.542 94.6061 40.501 94.5333 40.4191C94.4605 40.3371 94.424 40.2415 94.424 40.1323V36.1578C94.424 35.7936 94.3649 35.4612 94.2465 35.1607C94.1281 34.8603 93.9324 34.619 93.6592 34.4369C93.3951 34.2548 93.0446 34.1637 92.6075 34.1637C92.216 34.1637 91.8427 34.2548 91.4876 34.4369C91.1416 34.619 90.8593 34.8603 90.6408 35.1607C90.4223 35.4612 90.313 35.7936 90.313 36.1578V40.1323C90.313 40.2415 90.272 40.3371 90.1901 40.4191C90.1081 40.501 90.0125 40.542 89.9032 40.542C89.7758 40.542 89.6756 40.501 89.6028 40.4191C89.5299 40.3371 89.4935 40.2415 89.4935 40.1323V34.0135C89.4935 33.9042 89.5299 33.8086 89.6028 33.7267C89.6847 33.6447 89.7849 33.6037 89.9032 33.6037C90.0216 33.6037 90.1172 33.6447 90.1901 33.7267C90.272 33.8086 90.313 33.9042 90.313 34.0135V35.1607L89.9989 35.6524C90.0171 35.3611 90.1081 35.0834 90.272 34.8193C90.445 34.5461 90.6635 34.3048 90.9276 34.0954C91.1917 33.8769 91.483 33.7085 91.8017 33.5901C92.1295 33.4626 92.4573 33.3989 92.7851 33.3989ZM96.9388 33.5901H100.121C100.23 33.5901 100.321 33.6311 100.394 33.713C100.467 33.7858 100.504 33.8769 100.504 33.9862C100.504 34.0863 100.467 34.1728 100.394 34.2457C100.321 34.3185 100.23 34.3549 100.121 34.3549H96.9388C96.8296 34.3549 96.7339 34.3185 96.652 34.2457C96.5792 34.1637 96.5427 34.0727 96.5427 33.9725C96.5427 33.8632 96.5792 33.7722 96.652 33.6993C96.7339 33.6265 96.8296 33.5901 96.9388 33.5901ZM98.3456 31.6643C98.464 31.6643 98.5596 31.7053 98.6324 31.7872C98.7144 31.8692 98.7553 31.9648 98.7553 32.074V38.9304C98.7553 39.1853 98.7872 39.3765 98.8509 39.504C98.9238 39.6315 99.0148 39.718 99.1241 39.7635C99.2334 39.7999 99.3426 39.8181 99.4519 39.8181C99.5247 39.8181 99.5885 39.809 99.6431 39.7908C99.7068 39.7635 99.7751 39.7498 99.848 39.7498C99.9299 39.7498 99.9982 39.7817 100.053 39.8454C100.117 39.9092 100.148 39.9911 100.148 40.0913C100.148 40.2188 100.076 40.328 99.9299 40.4191C99.7842 40.501 99.6112 40.542 99.4109 40.542C99.329 40.542 99.206 40.5374 99.0421 40.5283C98.8782 40.5101 98.7098 40.46 98.5368 40.3781C98.3638 40.287 98.2181 40.1323 98.0997 39.9137C97.9905 39.6952 97.9358 39.3811 97.9358 38.9713V32.074C97.9358 31.9648 97.9723 31.8692 98.0451 31.7872C98.1271 31.7053 98.2272 31.6643 98.3456 31.6643ZM108.452 37.0455C108.452 37.7376 108.302 38.3613 108.002 38.9167C107.701 39.463 107.291 39.8955 106.772 40.2142C106.253 40.5238 105.661 40.6786 104.997 40.6786C104.35 40.6786 103.763 40.5238 103.235 40.2142C102.716 39.8955 102.302 39.463 101.992 38.9167C101.692 38.3613 101.541 37.7376 101.541 37.0455C101.541 36.3444 101.692 35.7207 101.992 35.1744C102.302 34.6281 102.716 34.1956 103.235 33.8769C103.763 33.5582 104.35 33.3989 104.997 33.3989C105.661 33.3989 106.253 33.5582 106.772 33.8769C107.291 34.1956 107.701 34.6281 108.002 35.1744C108.302 35.7207 108.452 36.3444 108.452 37.0455ZM107.633 37.0455C107.633 36.4901 107.519 35.9984 107.291 35.5705C107.064 35.1334 106.75 34.792 106.349 34.5461C105.957 34.2912 105.507 34.1637 104.997 34.1637C104.505 34.1637 104.059 34.2912 103.658 34.5461C103.258 34.792 102.939 35.1334 102.702 35.5705C102.475 35.9984 102.361 36.4901 102.361 37.0455C102.361 37.601 102.475 38.0927 102.702 38.5206C102.939 38.9486 103.258 39.29 103.658 39.545C104.059 39.7908 104.505 39.9137 104.997 39.9137C105.507 39.9137 105.957 39.7908 106.349 39.545C106.75 39.29 107.064 38.9486 107.291 38.5206C107.519 38.0927 107.633 37.601 107.633 37.0455ZM110.604 40.542C110.476 40.542 110.376 40.501 110.303 40.4191C110.23 40.3371 110.194 40.2415 110.194 40.1323V34.0135C110.194 33.9042 110.23 33.8086 110.303 33.7267C110.385 33.6447 110.485 33.6037 110.604 33.6037C110.722 33.6037 110.818 33.6447 110.89 33.7267C110.972 33.8086 111.013 33.9042 111.013 34.0135V36.0622L110.808 36.1031C110.836 35.7845 110.913 35.4703 111.041 35.1607C111.177 34.8421 111.359 34.5507 111.587 34.2866C111.815 34.0226 112.083 33.8086 112.393 33.6447C112.712 33.4808 113.067 33.3989 113.458 33.3989C113.622 33.3989 113.781 33.4353 113.936 33.5081C114.091 33.5719 114.168 33.6811 114.168 33.8359C114.168 33.9725 114.132 34.0772 114.059 34.1501C113.986 34.2229 113.9 34.2593 113.8 34.2593C113.718 34.2593 113.627 34.2366 113.526 34.191C113.435 34.1455 113.312 34.1227 113.158 34.1227C112.903 34.1227 112.648 34.2001 112.393 34.3549C112.138 34.5006 111.906 34.7009 111.696 34.9559C111.487 35.2108 111.318 35.4976 111.191 35.8163C111.073 36.1259 111.013 36.44 111.013 36.7587V40.1323C111.013 40.2415 110.972 40.3371 110.89 40.4191C110.808 40.501 110.713 40.542 110.604 40.542ZM120.653 33.4398C120.771 33.4398 120.867 33.4808 120.94 33.5628C121.021 33.6447 121.062 33.7403 121.062 33.8496V39.8728C121.062 40.6103 120.917 41.2294 120.625 41.7302C120.334 42.2401 119.942 42.6226 119.451 42.8775C118.959 43.1416 118.399 43.2736 117.771 43.2736C117.379 43.2736 117.015 43.2281 116.678 43.137C116.35 43.0551 116.082 42.9458 115.872 42.8092C115.763 42.7455 115.681 42.6681 115.627 42.577C115.572 42.486 115.567 42.3904 115.613 42.2902C115.658 42.1627 115.727 42.0762 115.818 42.0307C115.918 41.9943 116.018 41.9988 116.118 42.0444C116.273 42.1263 116.496 42.2265 116.787 42.3448C117.079 42.4632 117.411 42.5224 117.785 42.5224C118.285 42.5224 118.718 42.4177 119.082 42.2083C119.455 41.9988 119.742 41.6938 119.942 41.2932C120.143 40.9017 120.243 40.4327 120.243 39.8864V38.903L120.339 39.2308C120.202 39.5131 120.006 39.7635 119.751 39.982C119.505 40.2005 119.219 40.3735 118.891 40.501C118.572 40.6194 118.231 40.6786 117.866 40.6786C117.32 40.6786 116.865 40.5693 116.501 40.3508C116.146 40.1231 115.882 39.8136 115.709 39.422C115.536 39.0305 115.449 38.5707 115.449 38.0426V33.8496C115.449 33.7403 115.485 33.6447 115.558 33.5628C115.631 33.4808 115.731 33.4398 115.859 33.4398C115.977 33.4398 116.073 33.4808 116.146 33.5628C116.228 33.6447 116.268 33.7403 116.268 33.8496V37.9197C116.268 38.557 116.405 39.0487 116.678 39.3947C116.96 39.7407 117.416 39.9137 118.044 39.9137C118.436 39.9137 118.795 39.8227 119.123 39.6406C119.451 39.4494 119.719 39.2035 119.929 38.903C120.138 38.5935 120.243 38.2657 120.243 37.9197V33.8496C120.243 33.7403 120.279 33.6447 120.352 33.5628C120.434 33.4808 120.534 33.4398 120.653 33.4398Z" fill="#0241FF" style="fill:#0241FF;fill:color(display-p3 0.0078 0.2549 1.0000);fill-opacity:1;"/>
</svg>
