<svg width="51" height="51" viewBox="0 0 51 51" fill="none" xmlns="http://www.w3.org/2000/svg">
<path d="M0 25.0662C0 11.2225 11.2225 0 25.0662 0L42.5365 0C46.7315 0 50.1323 3.40076 50.1323 7.5958V25.0662C50.1323 38.9098 38.9098 50.1323 25.0662 50.1323C11.2225 50.1323 0 38.9098 0 25.0662Z" fill="white" style="fill:white;fill-opacity:1;"/>
<path opacity="0.5" d="M33.7955 27.1612L34.1399 27.8606C34.312 28.205 34.7532 28.5278 35.1191 28.5923L35.5818 28.6677C36.9915 28.9044 37.3143 29.9374 36.3135 30.9489L35.8831 31.3794C35.5926 31.6699 35.4419 32.2295 35.528 32.6384L35.5818 32.8966C35.9692 34.5968 35.0653 35.2532 33.5911 34.3601L33.279 34.1664C32.9024 33.9404 32.2783 33.9404 31.9016 34.1664L31.5896 34.3601C30.1046 35.2532 29.2115 34.5968 29.5988 32.8966L29.6526 32.6384C29.7387 32.2402 29.5881 31.6699 29.2975 31.3794L28.8671 30.9489C27.8664 29.9267 28.1892 28.9044 29.5988 28.6677L30.0616 28.5923C30.4382 28.5278 30.8686 28.205 31.0408 27.8606L31.3851 27.1612C32.0523 25.8161 33.1284 25.8161 33.7955 27.1612Z" fill="#000D33" style="fill:#000D33;fill:color(display-p3 0.0000 0.0498 0.2000);fill-opacity:1;"/>
<path d="M30.643 13.2373H21.6255C17.7086 13.2373 15.3735 15.5724 15.3735 19.4893V28.5068C15.3735 32.4237 17.7086 34.7587 21.6255 34.7587H27.3072C27.6838 34.7587 27.9528 34.3714 27.9098 33.9947C27.8667 33.5858 27.8883 33.1016 28.0174 32.542C28.0389 32.4667 28.0174 32.3806 27.9528 32.3161L27.7161 32.0793C26.8014 31.1539 26.4678 30.0348 26.7907 29.0125C27.1242 28.001 28.0497 27.2908 29.3302 27.0756L29.653 27.0218L29.9436 26.4407C30.5354 25.2355 31.5039 24.5361 32.5907 24.5361C33.6775 24.5361 34.646 25.2355 35.2378 26.4407L35.3992 26.7743C35.4746 26.9357 35.6252 27.0433 35.7974 27.0756C35.8942 27.0971 35.9911 27.1186 36.0879 27.1402C36.4645 27.237 36.895 26.9357 36.895 26.5376V19.4893C36.895 15.5724 34.5599 13.2373 30.643 13.2373ZM30.7183 20.7268L28.2326 23.9335C27.9205 24.3316 27.4793 24.5899 26.9736 24.6437C26.4786 24.7082 25.9728 24.5683 25.5855 24.2563L23.6162 22.7283C23.5409 22.6637 23.4548 22.6637 23.4118 22.6745C23.3688 22.6745 23.2934 22.696 23.2289 22.7821L20.6678 26.1071C20.5064 26.3116 20.2697 26.4192 20.0222 26.4192C19.85 26.4192 19.6778 26.3654 19.5272 26.247C19.1721 25.978 19.1075 25.4722 19.3765 25.1171L21.9376 21.7921C22.2496 21.3939 22.6908 21.1357 23.1966 21.0711C23.7023 21.0065 24.1973 21.1464 24.5955 21.4585L26.5647 23.008C26.64 23.0726 26.7153 23.0618 26.7691 23.0618C26.8122 23.0618 26.8875 23.0403 26.9521 22.9542L29.4378 19.7475C29.7068 19.3924 30.2126 19.3279 30.5677 19.6077C30.9335 19.8767 30.9873 20.3824 30.7183 20.7268Z" fill="#000D33" style="fill:#000D33;fill:color(display-p3 0.0000 0.0498 0.2000);fill-opacity:1;"/>
</svg>
