<svg width="30" height="30" viewBox="0 0 30 30" fill="none" xmlns="http://www.w3.org/2000/svg">
<path d="M1.7959 21.3076H11.127C11.4835 21.3077 11.9227 21.6525 11.9229 22.2734V27.5723C11.9229 28.1922 11.483 28.538 11.127 28.5381H1.7959C1.43986 28.5378 1 28.1921 1 27.5723V22.2734C1.00019 21.6514 1.43877 21.3079 1.7959 21.3076ZM18.4102 13.9229H27.7441C28.2154 13.9229 28.5379 14.2824 28.5381 14.6582V27.8027C28.5381 28.1775 28.2148 28.538 27.7441 28.5381H18.4102C17.9395 28.5381 17.6152 28.1775 17.6152 27.8027V14.6582C17.6154 14.2823 17.9389 13.9229 18.4102 13.9229ZM1.80371 1H11.1211C11.5943 1 11.9226 1.36307 11.9229 1.74609V14.873C11.9226 15.2515 11.5952 15.6152 11.1211 15.6152H1.80371C1.32778 15.6152 1.00019 15.2515 1 14.8711V1.74414L1.00391 1.67383C1.04203 1.32253 1.3599 1 1.80371 1ZM18.4229 1H27.7314C28.0958 1.00024 28.5381 1.35131 28.5381 1.97363V7.25879C28.5381 7.87864 28.0964 8.23023 27.7314 8.23047H18.4229C18.0578 8.23047 17.6152 7.87885 17.6152 7.25879V1.97559C17.6152 1.39212 18.0059 1.04515 18.3535 1.00391L18.4229 1Z" stroke="white" style="stroke:white;stroke-opacity:1;" stroke-width="2"/>
</svg>
