<svg width="32" height="32" viewBox="0 0 32 32" fill="none" xmlns="http://www.w3.org/2000/svg">
<path d="M16.0005 31L29.5522 23.9863C30.0788 23.7129 30.3422 23.5779 30.5338 23.3763C30.7036 23.1993 30.8322 22.987 30.9105 22.7546C31.0005 22.4895 31.0005 22.1945 31.0005 21.6012V8.55378M16.0005 31L2.44882 23.9863C1.92215 23.7129 1.65882 23.5779 1.46715 23.3763C1.29739 23.1993 1.16878 22.987 1.09049 22.7546C1.00049 22.4895 1.00049 22.1929 1.00049 21.5978V8.55378M16.0005 31V15.8942M31.0005 8.55378L16.0005 15.8942M31.0005 8.55378L23.5005 4.67024M1.00049 8.55378L14.7822 1.42173C15.2288 1.19172 15.4505 1.07504 15.6855 1.03004C15.8936 0.989987 16.1074 0.989987 16.3155 1.03004C16.5488 1.07504 16.7722 1.19172 17.2172 1.42173L23.5005 4.67024M1.00049 8.55378L8.50049 12.2256M16.0005 15.8942L8.50049 12.224M23.5005 4.67024L8.50049 12.224M8.50049 12.224V15.8942" stroke="white" style="stroke:white;stroke-opacity:1;" stroke-width="2" stroke-linecap="round" stroke-linejoin="round"/>
</svg>
