<svg width="32" height="32" viewBox="0 0 32 32" fill="none" xmlns="http://www.w3.org/2000/svg">
<path d="M19.9474 24.684V8.89453H8.89474C5.17316 8.89453 3.31316 8.89453 2.15579 10.0503C0.998421 11.2061 1 13.0661 1 16.7893V23.1051C1 26.8266 1 28.6866 2.15579 29.844C3.31158 31.0014 5.17316 30.9998 8.89474 30.9998H13.6316C16.6095 30.9998 18.0968 30.9998 19.0221 30.0745C19.9474 29.1493 19.9474 27.6619 19.9474 24.684Z" stroke="white" style="stroke:white;stroke-opacity:1;" stroke-width="2" stroke-linecap="round" stroke-linejoin="round"/>
<path d="M19.9478 23.1053H23.1057C26.8273 23.1053 28.6873 23.1053 29.8447 21.9495C31.002 20.7937 31.0005 18.9321 31.0005 15.2105V8.89474C31.0005 5.17316 31.0005 3.31158 29.8447 2.15579C28.6873 1 26.8273 1 23.1057 1H12.0531M12.0531 1V8.89474M12.0531 1L19.9478 8.89474M5.7373 16.7895H11.2636M5.7373 23.1053H15.211" stroke="white" style="stroke:white;stroke-opacity:1;" stroke-width="2" stroke-linecap="round" stroke-linejoin="round"/>
</svg>
