<svg width="30" height="25" viewBox="0 0 30 25" fill="none" xmlns="http://www.w3.org/2000/svg">
<path fill-rule="evenodd" clip-rule="evenodd" d="M12.1209 0H17.8535C20.4159 0 22.4457 1.70299e-07 24.0336 0.218572C25.6675 0.444286 26.9905 0.918571 28.0347 1.98714C28.9799 2.95571 29.4497 4.16143 29.6937 5.63C29.8708 6.70143 29.9349 7.97143 29.9586 9.46286C29.9759 9.57153 29.9778 9.6822 29.9642 9.79143C29.9679 10.2 29.9707 10.6257 29.9725 11.0686C29.9733 11.3527 29.8638 11.6256 29.6683 11.827C29.5714 11.9268 29.4564 12.006 29.3296 12.0602C29.2029 12.1144 29.067 12.1425 28.9297 12.1429C28.6524 12.1436 28.3862 12.0315 28.1896 11.8311C27.993 11.6307 27.8821 11.3584 27.8814 11.0743V10.7143H2.09307C2.09028 11.2686 2.08935 11.8638 2.09028 12.5C2.09028 15.2243 2.09307 17.16 2.28546 18.6286C2.47366 20.0643 2.82777 20.8929 3.41748 21.4971C4.00719 22.1014 4.81577 22.4643 6.21825 22.6571C7.6514 22.8543 9.53902 22.8571 12.1976 22.8571H14.2888C14.5661 22.8571 14.832 22.97 15.0281 23.171C15.2242 23.3719 15.3343 23.6444 15.3343 23.9286C15.3343 24.2127 15.2242 24.4853 15.0281 24.6862C14.832 24.8871 14.5661 25 14.2888 25H12.1209C9.55854 25 7.52871 25 5.94082 24.7814C4.30692 24.5557 2.98391 24.0814 1.93972 23.0129C0.896921 21.9429 0.434076 20.5871 0.213806 18.9129C0.000506945 17.2843 0.000506954 15.2057 0.000506954 12.58V12.42C-0.00135186 11.4752 0.00190102 10.599 0.0102657 9.79143C-0.00379328 9.68227 -0.00238458 9.5716 0.0144481 9.46286C0.0367539 8.16714 0.088336 7.04857 0.213806 6.08714C0.434076 4.41286 0.896921 3.05714 1.93972 1.98714C2.98391 0.918571 4.30692 0.444286 5.94082 0.218572C7.53011 1.70299e-07 9.55854 0 12.1209 0ZM2.12792 8.57143H27.8465C27.813 7.55 27.7489 6.70571 27.6318 5.98857C27.4325 4.78571 27.0923 4.05286 26.5556 3.50286C25.9658 2.89857 25.1573 2.53571 23.7548 2.34286C22.323 2.14571 20.434 2.14286 17.7754 2.14286H12.199C9.54042 2.14286 7.65279 2.14571 6.21825 2.34286C4.81716 2.53571 4.00858 2.89857 3.41887 3.50286C2.82916 4.10714 2.47506 4.93571 2.28685 6.37143C2.2032 7.00714 2.1558 7.73143 2.12792 8.57M19.8666 14.2843C20.1439 14.2843 20.4099 14.3972 20.6059 14.5981C20.802 14.799 20.9122 15.0716 20.9122 15.3557V21.3414L21.916 20.3129C22.0117 20.2076 22.1271 20.1232 22.2554 20.0646C22.3836 20.006 22.5221 19.9746 22.6625 19.972C22.8029 19.9695 22.9423 19.9959 23.0725 20.0498C23.2027 20.1037 23.321 20.1839 23.4203 20.2857C23.5195 20.3874 23.5978 20.5086 23.6504 20.642C23.703 20.7754 23.7288 20.9183 23.7263 21.0622C23.7239 21.206 23.6931 21.3479 23.636 21.4793C23.5788 21.6108 23.4964 21.7291 23.3937 21.8271L20.6055 24.6843C20.4094 24.8849 20.1437 24.9976 19.8666 24.9976C19.5895 24.9976 19.3238 24.8849 19.1277 24.6843L16.3395 21.8271C16.2368 21.7291 16.1544 21.6108 16.0972 21.4793C16.0401 21.3479 16.0094 21.206 16.0069 21.0622C16.0044 20.9183 16.0302 20.7754 16.0828 20.642C16.1354 20.5086 16.2137 20.3874 16.313 20.2857C16.4122 20.1839 16.5305 20.1037 16.6607 20.0498C16.7909 19.9959 16.9304 19.9695 17.0707 19.972C17.2111 19.9746 17.3496 20.006 17.4778 20.0646C17.6061 20.1232 17.7215 20.2076 17.8173 20.3129L18.821 21.3414V15.3571C18.821 15.073 18.9312 14.8005 19.1273 14.5995C19.3234 14.3986 19.5893 14.2857 19.8666 14.2857M25.4012 14.6C25.5973 14.3994 25.863 14.2867 26.1401 14.2867C26.4172 14.2867 26.6829 14.3994 26.879 14.6L29.6672 17.4571C29.7699 17.5552 29.8523 17.6735 29.9095 17.8049C29.9666 17.9364 29.9974 18.0783 29.9998 18.2221C30.0023 18.366 29.9765 18.5089 29.9239 18.6423C29.8713 18.7757 29.793 18.8969 29.6938 18.9986C29.5945 19.1004 29.4762 19.1806 29.346 19.2345C29.2158 19.2883 29.0764 19.3148 28.936 19.3123C28.7956 19.3097 28.6571 19.2782 28.5289 19.2197C28.4006 19.1611 28.2852 19.0767 28.1895 18.9714L27.1857 17.9429V23.9286C27.1857 24.2127 27.0755 24.4853 26.8795 24.6862C26.6834 24.8871 26.4174 25 26.1401 25C25.8628 25 25.5969 24.8871 25.4008 24.6862C25.2047 24.4853 25.0945 24.2127 25.0945 23.9286V17.9429L24.0908 18.9714C23.995 19.0767 23.8796 19.1611 23.7514 19.2197C23.6231 19.2782 23.4846 19.3097 23.3443 19.3123C23.2039 19.3148 23.0644 19.2883 22.9342 19.2345C22.804 19.1806 22.6858 19.1004 22.5865 18.9986C22.4872 18.8969 22.4089 18.7757 22.3563 18.6423C22.3037 18.5089 22.2779 18.366 22.2804 18.2221C22.2829 18.0783 22.3136 17.9364 22.3707 17.8049C22.4279 17.6735 22.5103 17.5552 22.613 17.4571L25.4012 14.6ZM5.57696 18.2143C5.57696 17.9301 5.68712 17.6576 5.8832 17.4567C6.07929 17.2557 6.34523 17.1429 6.62254 17.1429H12.199C12.4763 17.1429 12.7422 17.2557 12.9383 17.4567C13.1344 17.6576 13.2446 17.9301 13.2446 18.2143C13.2446 18.4984 13.1344 18.771 12.9383 18.9719C12.7422 19.1728 12.4763 19.2857 12.199 19.2857H6.62254C6.34523 19.2857 6.07929 19.1728 5.8832 18.9719C5.68712 18.771 5.57696 18.4984 5.57696 18.2143Z" fill="white" style="fill:white;fill-opacity:1;"/>
</svg>
