<svg width="39" height="32" viewBox="0 0 39 32" fill="none" xmlns="http://www.w3.org/2000/svg">
<path d="M10.6309 21.1453L16.2073 16.2148V31.0004M27.7258 26.0728L22.1465 31.0004V16.2148" stroke="white" style="stroke:white;stroke-opacity:1;" stroke-width="2" stroke-linecap="round" stroke-linejoin="round"/>
<path d="M10.4496 26.795C8.08781 26.9 5.77876 26.0765 4.01652 24.5006C2.25428 22.9247 1.17886 20.7216 1.02037 18.3629C0.861884 16.0041 1.63293 13.677 3.16851 11.8795C4.70409 10.082 6.88222 8.95701 9.2368 8.74515C9.36014 8.74721 9.48154 8.71422 9.58687 8.65002C9.69221 8.58581 9.77716 8.49303 9.83185 8.38245C10.65 6.01332 12.2555 3.9962 14.3807 2.66731C16.5058 1.33842 19.0222 0.778065 21.5105 1.07965C23.9987 1.38123 26.3084 2.52653 28.0545 4.32463C29.8007 6.12274 30.8778 8.46501 31.1063 10.961C31.1268 11.0918 31.1837 11.2143 31.2703 11.3145C31.357 11.4147 31.47 11.4885 31.5965 11.5277C33.1686 11.8975 34.5855 12.7499 35.6486 13.9656C36.7117 15.1813 37.3677 16.6992 37.5245 18.3065C37.6814 19.9139 37.3313 21.53 36.5232 22.9283C35.7152 24.3266 34.4899 25.4369 33.0189 26.1036" stroke="white" style="stroke:white;stroke-opacity:1;" stroke-width="2" stroke-linecap="round" stroke-linejoin="round"/>
</svg>
