<svg width="366" height="342" viewBox="0 0 366 342" fill="none" xmlns="http://www.w3.org/2000/svg">
<path d="M24.5872 310.17H350.448" stroke="#263238" style="stroke:#263238;stroke:color(display-p3 0.1490 0.1961 0.2196);stroke-opacity:1;" stroke-miterlimit="10"/>
<path d="M112.624 55.4297H282.284V263.81C282.284 265.556 281.59 267.23 280.356 268.465C279.121 269.7 277.447 270.393 275.701 270.393H119.207C117.461 270.393 115.787 269.7 114.552 268.465C113.317 267.23 112.624 265.556 112.624 263.81V55.4297Z" fill="white" stroke="#263238" style="fill:white;fill-opacity:1;stroke:#263238;stroke:color(display-p3 0.1490 0.1961 0.2196);stroke-opacity:1;" stroke-miterlimit="10"/>
<path d="M277.414 55.46H117.501V260.684H277.414V55.46Z" fill="white" stroke="#263238" style="fill:white;fill-opacity:1;stroke:#263238;stroke:color(display-p3 0.1490 0.1961 0.2196);stroke-opacity:1;" stroke-miterlimit="10"/>
<path d="M277.414 246.537H117.501V260.684H277.414V246.537Z" fill="#FFC727" stroke="#263238" style="fill:#FFC727;fill:color(display-p3 1.0000 0.7804 0.1529);fill-opacity:1;stroke:#263238;stroke:color(display-p3 0.1490 0.1961 0.2196);stroke-opacity:1;" stroke-miterlimit="10"/>
<path d="M152.918 147.603C164.026 147.603 173.031 138.598 173.031 127.49C173.031 116.383 164.026 107.378 152.918 107.378C141.811 107.378 132.806 116.383 132.806 127.49C132.806 138.598 141.811 147.603 152.918 147.603Z" fill="#263238" style="fill:#263238;fill:color(display-p3 0.1490 0.1961 0.2196);fill-opacity:1;"/>
<path d="M199.41 147.603C210.518 147.603 219.523 138.598 219.523 127.49C219.523 116.383 210.518 107.378 199.41 107.378C188.303 107.378 179.298 116.383 179.298 127.49C179.298 138.598 188.303 147.603 199.41 147.603Z" fill="#263238" style="fill:#263238;fill:color(display-p3 0.1490 0.1961 0.2196);fill-opacity:1;"/>
<path d="M245.902 147.603C257.01 147.603 266.015 138.598 266.015 127.49C266.015 116.383 257.01 107.378 245.902 107.378C234.794 107.378 225.79 116.383 225.79 127.49C225.79 138.598 234.794 147.603 245.902 147.603Z" fill="#263238" style="fill:#263238;fill:color(display-p3 0.1490 0.1961 0.2196);fill-opacity:1;"/>
<path d="M139.088 122.358C139.088 122.358 147.956 98.1475 153.165 98.1475C158.375 98.1475 167.528 122.073 167.528 122.073L165.985 122.212C165.985 122.212 156.978 101.235 154.3 99.9689C151.622 98.7031 146.698 106.305 140.647 122.35L139.088 122.358Z" fill="white" stroke="#263238" style="fill:white;fill-opacity:1;stroke:#263238;stroke:color(display-p3 0.1490 0.1961 0.2196);stroke-opacity:1;" stroke-linecap="round" stroke-linejoin="round"/>
<path d="M140.315 120.953H166.301C167.185 120.953 168.033 121.304 168.659 121.93C169.284 122.555 169.635 123.403 169.635 124.287V138.009C169.635 138.718 169.354 139.397 168.853 139.898C168.352 140.398 167.673 140.68 166.965 140.68H139.644C138.936 140.68 138.256 140.398 137.756 139.898C137.255 139.397 136.973 138.718 136.973 138.009V124.287C136.973 123.849 137.06 123.415 137.228 123.01C137.396 122.605 137.642 122.237 137.953 121.927C138.263 121.617 138.632 121.372 139.037 121.205C139.442 121.038 139.877 120.952 140.315 120.953Z" fill="white" stroke="#263238" style="fill:white;fill-opacity:1;stroke:#263238;stroke:color(display-p3 0.1490 0.1961 0.2196);stroke-opacity:1;" stroke-linecap="round" stroke-linejoin="round"/>
<path d="M137.259 131.512H166.826" stroke="#263238" style="stroke:#263238;stroke:color(display-p3 0.1490 0.1961 0.2196);stroke-opacity:1;" stroke-linecap="round" stroke-linejoin="round"/>
<path d="M168.092 121.655C168.092 121.655 167.389 122.504 167.389 124.897C167.389 127.289 166.54 139.962 166.687 140.525C166.834 141.089 167.667 140.664 167.667 140.664" fill="white" style="fill:white;fill-opacity:1;"/>
<path d="M168.092 121.655C168.092 121.655 167.389 122.504 167.389 124.897C167.389 127.289 166.54 139.962 166.687 140.525C166.834 141.089 167.667 140.664 167.667 140.664" stroke="#263238" style="stroke:#263238;stroke:color(display-p3 0.1490 0.1961 0.2196);stroke-opacity:1;" stroke-linecap="round" stroke-linejoin="round"/>
<path d="M153.173 128.694H150.919V133.765H153.173V128.694Z" fill="white" stroke="#263238" style="fill:white;fill-opacity:1;stroke:#263238;stroke:color(display-p3 0.1490 0.1961 0.2196);stroke-opacity:1;" stroke-linecap="round" stroke-linejoin="round"/>
<path d="M181.798 115.72C181.798 115.72 191.206 114.902 202.243 114.902C213.279 114.902 218.45 115.589 218.597 116.268C218.743 116.948 217.1 125.808 217.1 126.626C217.1 127.444 217.1 138.889 216.822 139.568C216.544 140.248 215.324 140.796 214.784 140.934C214.244 141.073 185.619 141.344 184.801 141.344C184.391 141.309 184.01 141.121 183.732 140.818C183.455 140.515 183.302 140.118 183.303 139.707C183.303 138.889 183.712 129.898 183.025 126.626C182.339 123.353 181.798 115.72 181.798 115.72Z" fill="white" stroke="#263238" style="fill:white;fill-opacity:1;stroke:#263238;stroke:color(display-p3 0.1490 0.1961 0.2196);stroke-opacity:1;" stroke-linecap="round" stroke-linejoin="round"/>
<path d="M191.878 120.259C191.878 120.259 191.739 109.492 192.835 105.811C193.303 104.252 194.255 102.884 195.554 101.904C196.854 100.924 198.431 100.384 200.059 100.362C202.174 100.498 204.193 101.294 205.831 102.639C207.469 103.983 208.643 105.808 209.189 107.856C210.547 113.174 209.459 119.85 209.32 120.529C209.181 121.208 207.684 123.122 207.414 119.441C207.144 115.759 207.684 107.177 206.596 104.723C205.971 103.433 204.938 102.386 203.656 101.746C202.375 101.105 200.917 100.906 199.511 101.18C196.647 101.86 195.15 103.087 194.602 106.629C194.054 110.172 195.15 118.352 194.471 120.12C193.792 121.887 192.156 122.674 191.878 120.259Z" fill="white" stroke="#263238" style="fill:white;fill-opacity:1;stroke:#263238;stroke:color(display-p3 0.1490 0.1961 0.2196);stroke-opacity:1;" stroke-linecap="round" stroke-linejoin="round"/>
<path d="M184.392 115.859C184.392 115.859 183.712 123.083 183.712 125.808C183.712 128.532 183.573 130.307 183.573 130.307" fill="white" style="fill:white;fill-opacity:1;"/>
<path d="M184.392 115.859C184.392 115.859 183.712 123.083 183.712 125.808C183.712 128.532 183.573 130.307 183.573 130.307" stroke="#263238" style="stroke:#263238;stroke:color(display-p3 0.1490 0.1961 0.2196);stroke-opacity:1;" stroke-linecap="round" stroke-linejoin="round"/>
<path d="M216.281 115.999C216.281 115.999 216.552 123.215 216.552 127.445" stroke="#263238" style="stroke:#263238;stroke:color(display-p3 0.1490 0.1961 0.2196);stroke-opacity:1;" stroke-linecap="round" stroke-linejoin="round"/>
<path d="M251.413 114.618C251.249 114.609 251.093 114.545 250.971 114.435C250.849 114.326 250.768 114.178 250.741 114.016C249.399 105.611 247.708 96.3572 246.883 93.3473C245.609 96.1874 242.815 105.225 240.5 113.414C240.449 113.596 240.327 113.75 240.162 113.843C239.997 113.935 239.802 113.959 239.62 113.907C239.438 113.856 239.284 113.735 239.191 113.57C239.098 113.405 239.075 113.21 239.126 113.028C239.126 112.974 240.616 107.741 242.213 102.508C245.578 91.6108 246.203 91.3947 246.713 91.2172C246.839 91.1651 246.978 91.1476 247.113 91.1666C247.249 91.1856 247.377 91.2404 247.485 91.3252C247.855 91.5953 248.357 91.9658 250.363 103.041C251.328 108.389 252.185 113.707 252.192 113.761C252.221 113.948 252.175 114.139 252.064 114.292C251.952 114.446 251.785 114.549 251.598 114.579L251.413 114.618Z" fill="white" stroke="#263238" style="fill:white;fill-opacity:1;stroke:#263238;stroke:color(display-p3 0.1490 0.1961 0.2196);stroke-opacity:1;" stroke-linecap="round" stroke-linejoin="round"/>
<path d="M228.831 112.279C228.831 112.279 242.684 111.422 247.461 111.615C252.239 111.808 260.72 112.333 260.697 112.858C260.674 113.383 260.497 130.925 259.995 134.468C259.493 138.01 257.024 142.324 254.863 143.119C252.702 143.914 245.455 143.621 241.742 143.474C238.03 143.328 234.681 142.834 233.006 140.464C231.331 138.095 230.135 128.116 230.135 128.116L228.831 112.279Z" fill="white" stroke="#263238" style="fill:white;fill-opacity:1;stroke:#263238;stroke:color(display-p3 0.1490 0.1961 0.2196);stroke-opacity:1;" stroke-linecap="round" stroke-linejoin="round"/>
<path d="M239.836 116.091C239.848 115.81 239.777 115.532 239.63 115.292C239.484 115.052 239.27 114.861 239.015 114.742C238.76 114.624 238.476 114.584 238.198 114.627C237.92 114.671 237.662 114.796 237.455 114.986C237.248 115.177 237.103 115.424 237.037 115.697C236.971 115.971 236.988 116.257 237.085 116.521C237.182 116.785 237.355 117.014 237.582 117.179C237.81 117.344 238.081 117.438 238.362 117.449C238.548 117.458 238.734 117.429 238.909 117.365C239.084 117.301 239.245 117.203 239.382 117.077C239.519 116.951 239.63 116.799 239.708 116.629C239.785 116.46 239.829 116.277 239.836 116.091Z" fill="white" stroke="#263238" style="fill:white;fill-opacity:1;stroke:#263238;stroke:color(display-p3 0.1490 0.1961 0.2196);stroke-opacity:1;" stroke-linecap="round" stroke-linejoin="round"/>
<path d="M253.095 116.801C253.107 116.52 253.036 116.242 252.89 116.002C252.744 115.762 252.529 115.571 252.274 115.452C252.019 115.334 251.735 115.294 251.457 115.337C251.18 115.381 250.921 115.506 250.714 115.696C250.508 115.887 250.362 116.134 250.296 116.407C250.23 116.681 250.247 116.967 250.344 117.231C250.441 117.495 250.614 117.724 250.842 117.889C251.069 118.054 251.34 118.148 251.621 118.159C251.807 118.168 251.993 118.139 252.168 118.075C252.343 118.011 252.504 117.913 252.641 117.787C252.778 117.661 252.889 117.509 252.967 117.339C253.045 117.17 253.089 116.987 253.095 116.801Z" fill="white" stroke="#263238" style="fill:white;fill-opacity:1;stroke:#263238;stroke:color(display-p3 0.1490 0.1961 0.2196);stroke-opacity:1;" stroke-linecap="round" stroke-linejoin="round"/>
<path d="M231.239 135.586C231.239 135.586 241.194 134.745 259.401 135.664L231.239 135.586Z" fill="white" style="fill:white;fill-opacity:1;"/>
<path d="M231.239 135.586C231.239 135.586 241.194 134.745 259.401 135.664" stroke="#263238" style="stroke:#263238;stroke:color(display-p3 0.1490 0.1961 0.2196);stroke-opacity:1;" stroke-linecap="round" stroke-linejoin="round"/>
<path d="M267.234 78.4053H129.796V89.5806H267.234V78.4053Z" fill="#263238" style="fill:#263238;fill:color(display-p3 0.1490 0.1961 0.2196);fill-opacity:1;"/>
<path d="M196.462 84.7646H210.084" stroke="white" style="stroke:white;stroke-opacity:1;" stroke-width="2" stroke-miterlimit="10"/>
<path d="M225.852 84.7646H239.473" stroke="white" style="stroke:white;stroke-opacity:1;" stroke-width="2" stroke-miterlimit="10"/>
<path d="M262.935 81.3068C262.908 81.2711 262.873 81.2421 262.833 81.222C262.793 81.2019 262.749 81.1913 262.704 81.191H255.233L254.948 80.3266C254.926 80.2695 254.889 80.2199 254.839 80.1842C254.79 80.1485 254.731 80.1282 254.67 80.126H252.779C252.74 80.126 252.702 80.1336 252.667 80.1483C252.631 80.163 252.599 80.1846 252.571 80.2119C252.544 80.2391 252.523 80.2714 252.508 80.307C252.493 80.3426 252.486 80.3807 252.486 80.4193C252.486 80.4578 252.493 80.4959 252.508 80.5315C252.523 80.5671 252.544 80.5994 252.571 80.6266C252.599 80.6539 252.631 80.6755 252.667 80.6902C252.702 80.7049 252.74 80.7125 252.779 80.7125H254.461L256.283 86.1844C256.303 86.2422 256.341 86.2923 256.39 86.3282C256.44 86.364 256.499 86.3839 256.561 86.3851H256.707C256.602 86.5428 256.546 86.7281 256.545 86.9176C256.533 87.0563 256.55 87.1959 256.594 87.3277C256.639 87.4595 256.711 87.5806 256.805 87.6832C256.899 87.7858 257.013 87.8678 257.14 87.9238C257.268 87.9799 257.405 88.0089 257.545 88.0089C257.684 88.0089 257.821 87.9799 257.949 87.9238C258.076 87.8678 258.19 87.7858 258.284 87.6832C258.378 87.5806 258.45 87.4595 258.495 87.3277C258.539 87.1959 258.556 87.0563 258.544 86.9176C258.544 86.7281 258.487 86.5428 258.382 86.3851H259.779C259.674 86.5428 259.617 86.7281 259.617 86.9176C259.605 87.0563 259.621 87.1959 259.666 87.3277C259.711 87.4595 259.782 87.5806 259.876 87.6832C259.97 87.7858 260.085 87.8678 260.212 87.9238C260.339 87.9799 260.477 88.0089 260.616 88.0089C260.755 88.0089 260.893 87.9799 261.02 87.9238C261.148 87.8678 261.262 87.7858 261.356 87.6832C261.45 87.5806 261.522 87.4595 261.566 87.3277C261.611 87.1959 261.628 87.0563 261.616 86.9176C261.615 86.7281 261.559 86.5428 261.454 86.3851H261.677C261.716 86.3851 261.754 86.3775 261.79 86.3628C261.825 86.348 261.858 86.3264 261.885 86.2992C261.912 86.272 261.934 86.2396 261.948 86.2041C261.963 86.1685 261.971 86.1303 261.971 86.0918C261.971 86.0533 261.963 86.0152 261.948 85.9796C261.934 85.944 261.912 85.9117 261.885 85.8845C261.858 85.8572 261.825 85.8356 261.79 85.8209C261.754 85.8061 261.716 85.7986 261.677 85.7986H256.808L256.491 84.8415H261.894C261.956 84.8422 262.018 84.8221 262.068 84.7845C262.118 84.7468 262.154 84.6936 262.171 84.6332L262.997 81.546C263.005 81.5041 263.003 81.4609 262.993 81.4196C262.982 81.3783 262.963 81.3398 262.935 81.3068ZM257.533 87.3344C257.423 87.3344 257.317 87.2905 257.238 87.2123C257.16 87.1342 257.116 87.0282 257.116 86.9176C257.116 86.8071 257.16 86.7011 257.238 86.6229C257.317 86.5448 257.423 86.5009 257.533 86.5009C257.644 86.5009 257.75 86.5448 257.828 86.6229C257.906 86.7011 257.95 86.8071 257.95 86.9176C257.95 87.0282 257.906 87.1342 257.828 87.2123C257.75 87.2905 257.644 87.3344 257.533 87.3344ZM260.62 87.3344C260.538 87.3329 260.458 87.3071 260.391 87.2604C260.323 87.2137 260.271 87.1481 260.241 87.0718C260.21 86.9956 260.203 86.912 260.22 86.8317C260.237 86.7514 260.277 86.6778 260.336 86.6203C260.394 86.5628 260.469 86.5239 260.549 86.5084C260.63 86.4929 260.713 86.5016 260.789 86.5334C260.865 86.5652 260.929 86.6186 260.975 86.6869C261.02 86.7553 261.045 86.8355 261.045 86.9176C261.045 86.978 261.033 87.0377 261.008 87.0928C260.983 87.1478 260.947 87.1969 260.902 87.2365C260.856 87.2761 260.803 87.3054 260.745 87.3223C260.687 87.3392 260.626 87.3433 260.566 87.3344H260.62ZM261.392 84.2473H260.319V81.7544H261.338L261.392 84.2473ZM258.66 81.7544H259.733V84.2473H258.66V81.7544ZM258.081 84.2473H257.008V81.7544H258.081V84.2473ZM255.465 81.7544H256.429V84.2473H256.298L255.465 81.7544ZM261.971 83.2208V81.7544H262.364L261.971 83.2208Z" fill="white" style="fill:white;fill-opacity:1;"/>
<path d="M185.233 87.3425H134.928C134.488 87.3435 134.051 87.2576 133.644 87.0897C133.237 86.9219 132.867 86.6753 132.555 86.3642C132.243 86.053 131.996 85.6835 131.827 85.2766C131.658 84.8697 131.571 84.4335 131.571 83.993C131.571 83.1026 131.925 82.2487 132.554 81.619C133.184 80.9894 134.038 80.6357 134.928 80.6357H185.233C185.673 80.6357 186.11 80.7226 186.516 80.8914C186.923 81.0603 187.293 81.3077 187.604 81.6195C187.915 81.9314 188.162 82.3015 188.33 82.7088C188.498 83.1161 188.583 83.5525 188.582 83.993C188.582 84.8813 188.229 85.7333 187.601 86.3614C186.973 86.9896 186.121 87.3425 185.233 87.3425Z" fill="white" style="fill:white;fill-opacity:1;"/>
<path d="M142.584 153.87H163.183" stroke="#263238" style="stroke:#263238;stroke:color(display-p3 0.1490 0.1961 0.2196);stroke-opacity:1;" stroke-width="2" stroke-linecap="round" stroke-linejoin="round"/>
<path d="M142.584 157.775H163.183" stroke="#263238" style="stroke:#263238;stroke:color(display-p3 0.1490 0.1961 0.2196);stroke-opacity:1;" stroke-width="2" stroke-linecap="round" stroke-linejoin="round"/>
<path d="M189.107 153.87H209.706" stroke="#263238" style="stroke:#263238;stroke:color(display-p3 0.1490 0.1961 0.2196);stroke-opacity:1;" stroke-width="2" stroke-linecap="round" stroke-linejoin="round"/>
<path d="M189.107 157.775H209.706" stroke="#263238" style="stroke:#263238;stroke:color(display-p3 0.1490 0.1961 0.2196);stroke-opacity:1;" stroke-width="2" stroke-linecap="round" stroke-linejoin="round"/>
<path d="M235.63 153.87H256.229" stroke="#263238" style="stroke:#263238;stroke:color(display-p3 0.1490 0.1961 0.2196);stroke-opacity:1;" stroke-width="2" stroke-linecap="round" stroke-linejoin="round"/>
<path d="M235.63 157.775H256.229" stroke="#263238" style="stroke:#263238;stroke:color(display-p3 0.1490 0.1961 0.2196);stroke-opacity:1;" stroke-width="2" stroke-linecap="round" stroke-linejoin="round"/>
<path d="M277.414 55.46H117.501V82.5108H277.414V55.46Z" fill="#FFC727" stroke="#263238" style="fill:#FFC727;fill:color(display-p3 1.0000 0.7804 0.1529);fill-opacity:1;stroke:#263238;stroke:color(display-p3 0.1490 0.1961 0.2196);stroke-opacity:1;" stroke-miterlimit="10"/>
<path d="M112.624 74.5235C112.824 74.5235 113.017 74.5235 113.218 74.5235C115.348 74.5214 117.424 73.859 119.162 72.6274C120.899 71.3958 122.212 69.6558 122.919 67.647C123.723 69.941 125.313 71.8762 127.408 73.1097C129.502 74.3432 131.966 74.7951 134.362 74.3855C136.758 73.9758 138.932 72.731 140.497 70.8717C142.063 69.0124 142.92 66.6587 142.916 64.228C142.916 64.0582 142.916 63.8961 142.916 63.734H143.016C143.016 63.8961 143.016 64.0582 143.016 64.228C143.016 66.9585 144.101 69.5772 146.032 71.508C147.963 73.4388 150.581 74.5235 153.312 74.5235C156.043 74.5235 158.661 73.4388 160.592 71.508C162.523 69.5772 163.608 66.9585 163.608 64.228C163.608 64.0582 163.608 63.8961 163.608 63.734H163.7C163.7 63.8961 163.7 64.0582 163.7 64.228C163.662 65.6032 163.901 66.972 164.401 68.2536C164.901 69.5352 165.653 70.7035 166.613 71.6895C167.572 72.6756 168.719 73.4593 169.987 73.9945C171.254 74.5296 172.616 74.8054 173.992 74.8054C175.368 74.8054 176.729 74.5296 177.997 73.9945C179.264 73.4593 180.411 72.6756 181.371 71.6895C182.33 70.7035 183.082 69.5352 183.583 68.2536C184.083 66.972 184.321 65.6032 184.283 64.228C184.283 64.0582 184.283 63.8961 184.283 63.734H184.376C184.376 63.8961 184.376 64.0582 184.376 64.228C184.338 65.6032 184.577 66.972 185.077 68.2536C185.577 69.5352 186.329 70.7035 187.289 71.6895C188.248 72.6756 189.395 73.4593 190.663 73.9945C191.93 74.5296 193.292 74.8054 194.668 74.8054C196.044 74.8054 197.405 74.5296 198.673 73.9945C199.94 73.4593 201.087 72.6756 202.047 71.6895C203.006 70.7035 203.758 69.5352 204.258 68.2536C204.759 66.972 204.997 65.6032 204.959 64.228C204.959 64.0582 204.959 63.8961 204.959 63.734H205.299C205.299 63.8961 205.299 64.0582 205.299 64.228C205.261 65.6032 205.5 66.972 206 68.2536C206.5 69.5352 207.252 70.7035 208.212 71.6895C209.171 72.6756 210.318 73.4593 211.586 73.9945C212.853 74.5296 214.215 74.8054 215.591 74.8054C216.966 74.8054 218.328 74.5296 219.596 73.9945C220.863 73.4593 222.01 72.6756 222.97 71.6895C223.929 70.7035 224.681 69.5352 225.181 68.2536C225.682 66.972 225.92 65.6032 225.882 64.228C225.882 64.0582 225.882 63.8961 225.882 63.734H225.975C225.975 63.8961 225.975 64.0582 225.975 64.228C225.975 66.9585 227.06 69.5772 228.99 71.508C230.921 73.4388 233.54 74.5235 236.271 74.5235C239.001 74.5235 241.62 73.4388 243.551 71.508C245.481 69.5772 246.566 66.9585 246.566 64.228C246.566 64.0582 246.566 63.8961 246.566 63.734H247.647C247.647 63.8961 247.647 64.0582 247.647 64.228C247.609 65.6032 247.847 66.972 248.347 68.2536C248.848 69.5352 249.6 70.7035 250.559 71.6895C251.519 72.6756 252.666 73.4593 253.933 73.9945C255.201 74.5296 256.562 74.8054 257.938 74.8054C259.314 74.8054 260.676 74.5296 261.943 73.9945C263.211 73.4593 264.358 72.6756 265.317 71.6895C266.277 70.7035 267.029 69.5352 267.529 68.2536C268.029 66.972 268.268 65.6032 268.23 64.228C268.23 64.0582 268.23 63.8961 268.23 63.734H268.322C268.322 63.8961 268.322 64.0582 268.322 64.228C268.321 65.9282 268.741 67.6022 269.545 69.1004C270.349 70.5985 271.512 71.8741 272.929 72.813C274.347 73.7518 275.975 74.3248 277.668 74.4805C279.361 74.6362 281.066 74.3699 282.631 73.7054V55.4297H112.624V74.5235Z" fill="#263238" style="fill:#263238;fill:color(display-p3 0.1490 0.1961 0.2196);fill-opacity:1;"/>
<path d="M102.961 59.458C102.961 59.6818 102.961 59.9134 102.961 60.1372C102.961 62.8677 104.046 65.4864 105.977 67.4172C107.907 69.348 110.526 70.4327 113.257 70.4327C115.987 70.4327 118.606 69.348 120.537 67.4172C122.468 65.4864 123.552 62.8677 123.552 60.1372C123.552 59.9134 123.552 59.6818 123.552 59.458H102.961Z" fill="white" stroke="#263238" style="fill:white;fill-opacity:1;stroke:#263238;stroke:color(display-p3 0.1490 0.1961 0.2196);stroke-opacity:1;" stroke-linecap="round" stroke-linejoin="round"/>
<path d="M122.364 59.458C122.364 59.6818 122.325 59.9134 122.325 60.1372C122.325 62.8677 123.41 65.4864 125.341 67.4172C127.271 69.348 129.89 70.4327 132.621 70.4327C135.351 70.4327 137.97 69.348 139.901 67.4172C141.832 65.4864 142.916 62.8677 142.916 60.1372C142.916 59.9134 142.916 59.6818 142.878 59.458H122.364Z" fill="#FFC727" stroke="#263238" style="fill:#FFC727;fill:color(display-p3 1.0000 0.7804 0.1529);fill-opacity:1;stroke:#263238;stroke:color(display-p3 0.1490 0.1961 0.2196);stroke-opacity:1;" stroke-linecap="round" stroke-linejoin="round"/>
<path d="M142.993 59.458C142.993 59.6818 142.993 59.9134 142.993 60.1372C142.993 62.8677 144.078 65.4864 146.009 67.4172C147.94 69.348 150.558 70.4327 153.289 70.4327C156.019 70.4327 158.638 69.348 160.569 67.4172C162.5 65.4864 163.584 62.8677 163.584 60.1372C163.584 59.9134 163.584 59.6818 163.584 59.458H142.993Z" fill="white" stroke="#263238" style="fill:white;fill-opacity:1;stroke:#263238;stroke:color(display-p3 0.1490 0.1961 0.2196);stroke-opacity:1;" stroke-linecap="round" stroke-linejoin="round"/>
<path d="M163.623 59.458C163.623 59.6818 163.623 59.9134 163.623 60.1372C163.585 61.5124 163.824 62.8812 164.324 64.1628C164.824 65.4444 165.576 66.6127 166.536 67.5987C167.495 68.5848 168.642 69.3685 169.91 69.9037C171.177 70.4388 172.539 70.7146 173.915 70.7146C175.29 70.7146 176.652 70.4388 177.92 69.9037C179.187 69.3685 180.334 68.5848 181.294 67.5987C182.253 66.6127 183.005 65.4444 183.505 64.1628C184.006 62.8812 184.244 61.5124 184.206 60.1372C184.206 59.9134 184.206 59.6818 184.206 59.458H163.623Z" fill="#FFC727" stroke="#263238" style="fill:#FFC727;fill:color(display-p3 1.0000 0.7804 0.1529);fill-opacity:1;stroke:#263238;stroke:color(display-p3 0.1490 0.1961 0.2196);stroke-opacity:1;" stroke-linecap="round" stroke-linejoin="round"/>
<path d="M184.253 59.458C184.253 59.6818 184.253 59.9134 184.253 60.1372C184.215 61.5124 184.453 62.8812 184.954 64.1628C185.454 65.4444 186.206 66.6127 187.165 67.5987C188.125 68.5848 189.272 69.3685 190.539 69.9037C191.807 70.4388 193.169 70.7146 194.544 70.7146C195.92 70.7146 197.282 70.4388 198.549 69.9037C199.817 69.3685 200.964 68.5848 201.923 67.5987C202.883 66.6127 203.635 65.4444 204.135 64.1628C204.635 62.8812 204.874 61.5124 204.836 60.1372C204.836 59.9134 204.836 59.6818 204.836 59.458H184.253Z" fill="white" stroke="#263238" style="fill:white;fill-opacity:1;stroke:#263238;stroke:color(display-p3 0.1490 0.1961 0.2196);stroke-opacity:1;" stroke-linecap="round" stroke-linejoin="round"/>
<path d="M205.129 59.458C205.129 59.6818 205.129 59.9134 205.129 60.1372C205.092 61.5124 205.33 62.8812 205.83 64.1628C206.331 65.4444 207.083 66.6127 208.042 67.5987C209.001 68.5848 210.149 69.3685 211.416 69.9037C212.683 70.4388 214.045 70.7146 215.421 70.7146C216.797 70.7146 218.159 70.4388 219.426 69.9037C220.693 69.3685 221.841 68.5848 222.8 67.5987C223.759 66.6127 224.511 65.4444 225.012 64.1628C225.512 62.8812 225.75 61.5124 225.713 60.1372C225.713 59.9134 225.713 59.6818 225.713 59.458H205.129Z" fill="#FFC727" stroke="#263238" style="fill:#FFC727;fill:color(display-p3 1.0000 0.7804 0.1529);fill-opacity:1;stroke:#263238;stroke:color(display-p3 0.1490 0.1961 0.2196);stroke-opacity:1;" stroke-linecap="round" stroke-linejoin="round"/>
<path d="M225.767 59.458C225.767 59.6818 225.728 59.9134 225.728 60.1372C225.728 62.8677 226.813 65.4864 228.744 67.4172C230.674 69.348 233.293 70.4327 236.024 70.4327C238.754 70.4327 241.373 69.348 243.304 67.4172C245.234 65.4864 246.319 62.8677 246.319 60.1372C246.319 59.9134 246.319 59.6818 246.281 59.458H225.767Z" fill="white" stroke="#263238" style="fill:white;fill-opacity:1;stroke:#263238;stroke:color(display-p3 0.1490 0.1961 0.2196);stroke-opacity:1;" stroke-linecap="round" stroke-linejoin="round"/>
<path d="M247.376 59.458C247.376 59.6818 247.376 59.9134 247.376 60.1372C247.339 61.5124 247.577 62.8812 248.077 64.1628C248.578 65.4444 249.33 66.6127 250.289 67.5987C251.248 68.5848 252.396 69.3685 253.663 69.9037C254.931 70.4388 256.292 70.7146 257.668 70.7146C259.044 70.7146 260.406 70.4388 261.673 69.9037C262.94 69.3685 264.088 68.5848 265.047 67.5987C266.007 66.6127 266.759 65.4444 267.259 64.1628C267.759 62.8812 267.997 61.5124 267.96 60.1372C267.96 59.9134 267.96 59.6818 267.96 59.458H247.376Z" fill="#FFC727" stroke="#263238" style="fill:#FFC727;fill:color(display-p3 1.0000 0.7804 0.1529);fill-opacity:1;stroke:#263238;stroke:color(display-p3 0.1490 0.1961 0.2196);stroke-opacity:1;" stroke-linecap="round" stroke-linejoin="round"/>
<path d="M268.006 59.458C268.006 59.6818 268.006 59.9134 268.006 60.1372C267.968 61.5124 268.207 62.8812 268.707 64.1628C269.207 65.4444 269.959 66.6127 270.919 67.5987C271.878 68.5848 273.025 69.3685 274.293 69.9037C275.56 70.4388 276.922 70.7146 278.298 70.7146C279.673 70.7146 281.035 70.4388 282.303 69.9037C283.57 69.3685 284.717 68.5848 285.677 67.5987C286.636 66.6127 287.388 65.4444 287.888 64.1628C288.389 62.8812 288.627 61.5124 288.589 60.1372C288.589 59.9134 288.589 59.6818 288.589 59.458H268.006Z" fill="white" stroke="#263238" style="fill:white;fill-opacity:1;stroke:#263238;stroke:color(display-p3 0.1490 0.1961 0.2196);stroke-opacity:1;" stroke-linecap="round" stroke-linejoin="round"/>
<path d="M121.229 27.3906L102.961 59.6433H288.821L271.425 27.3906H121.229Z" fill="white" stroke="#263238" style="fill:white;fill-opacity:1;stroke:#263238;stroke:color(display-p3 0.1490 0.1961 0.2196);stroke-opacity:1;" stroke-linecap="round" stroke-linejoin="round"/>
<path d="M121.229 27.3906L102.961 59.6433H267.86L254.485 27.3906H121.229Z" fill="#FFC727" stroke="#263238" style="fill:#FFC727;fill:color(display-p3 1.0000 0.7804 0.1529);fill-opacity:1;stroke:#263238;stroke:color(display-p3 0.1490 0.1961 0.2196);stroke-opacity:1;" stroke-linecap="round" stroke-linejoin="round"/>
<path d="M121.229 27.3906L102.961 59.6433H246.728L237.413 27.3906H121.229Z" fill="white" stroke="#263238" style="fill:white;fill-opacity:1;stroke:#263238;stroke:color(display-p3 0.1490 0.1961 0.2196);stroke-opacity:1;" stroke-linecap="round" stroke-linejoin="round"/>
<path d="M121.229 27.3906L102.961 59.6433H226.083L220.727 27.3906H121.229Z" fill="#FFC727" stroke="#263238" style="fill:#FFC727;fill:color(display-p3 1.0000 0.7804 0.1529);fill-opacity:1;stroke:#263238;stroke:color(display-p3 0.1490 0.1961 0.2196);stroke-opacity:1;" stroke-linecap="round" stroke-linejoin="round"/>
<path d="M121.229 27.3906L102.961 59.6433H204.859L203.578 27.3906H121.229Z" fill="white" stroke="#263238" style="fill:white;fill-opacity:1;stroke:#263238;stroke:color(display-p3 0.1490 0.1961 0.2196);stroke-opacity:1;" stroke-linecap="round" stroke-linejoin="round"/>
<path d="M121.229 27.3906L102.961 59.6433H183.99L186.715 27.3906H121.229Z" fill="#FFC727" stroke="#263238" style="fill:#FFC727;fill:color(display-p3 1.0000 0.7804 0.1529);fill-opacity:1;stroke:#263238;stroke:color(display-p3 0.1490 0.1961 0.2196);stroke-opacity:1;" stroke-linecap="round" stroke-linejoin="round"/>
<path d="M121.229 27.3906L102.961 59.6433H163.631L170.26 27.3906H121.229Z" fill="white" stroke="#263238" style="fill:white;fill-opacity:1;stroke:#263238;stroke:color(display-p3 0.1490 0.1961 0.2196);stroke-opacity:1;" stroke-linecap="round" stroke-linejoin="round"/>
<path d="M121.229 27.3906L102.961 59.6433H143.094L153.659 27.3906H121.229Z" fill="#FFC727" stroke="#263238" style="fill:#FFC727;fill:color(display-p3 1.0000 0.7804 0.1529);fill-opacity:1;stroke:#263238;stroke:color(display-p3 0.1490 0.1961 0.2196);stroke-opacity:1;" stroke-linecap="round" stroke-linejoin="round"/>
<path d="M121.229 27.3906L102.961 59.6433H122.665L137.151 27.3906H121.229Z" fill="white" stroke="#263238" style="fill:white;fill-opacity:1;stroke:#263238;stroke:color(display-p3 0.1490 0.1961 0.2196);stroke-opacity:1;" stroke-linecap="round" stroke-linejoin="round"/>
<path d="M177.268 196.186C175.883 196.273 174.504 195.942 173.309 195.237C172.391 194.605 171.728 193.667 171.441 192.59C171.083 191.294 170.914 189.952 170.94 188.608H175.47C175.458 189.362 175.515 190.117 175.64 190.861C175.701 191.368 175.913 191.844 176.249 192.227C176.426 192.389 176.635 192.51 176.863 192.583C177.091 192.656 177.332 192.68 177.569 192.652C177.823 192.663 178.075 192.607 178.3 192.489C178.526 192.371 178.715 192.196 178.85 191.98C179.151 191.419 179.317 190.795 179.336 190.159C179.398 189.366 179.429 188.433 179.429 187.357C179.435 186.583 179.383 185.809 179.275 185.042C179.211 184.473 179.007 183.93 178.68 183.46C178.518 183.262 178.311 183.107 178.076 183.006C177.841 182.905 177.585 182.862 177.33 182.881C177.075 182.874 176.822 182.922 176.587 183.022C176.353 183.122 176.143 183.271 175.972 183.46C175.576 183.932 175.31 184.498 175.2 185.104H171.179L171.511 171.111H182.833V175.155H175.377L175.107 180.604C175.441 180.243 175.864 179.977 176.334 179.832C176.935 179.604 177.568 179.472 178.21 179.439C179.329 179.289 180.463 179.565 181.389 180.211C182.281 180.888 182.935 181.831 183.257 182.904C183.697 184.304 183.903 185.767 183.867 187.234C183.874 188.442 183.794 189.649 183.628 190.846C183.499 191.849 183.179 192.818 182.686 193.701C182.211 194.509 181.511 195.16 180.672 195.577C179.601 196.044 178.435 196.253 177.268 196.186Z" fill="#263238" style="fill:#263238;fill:color(display-p3 0.1490 0.1961 0.2196);fill-opacity:1;"/>
<path d="M193.151 196.186C191.862 196.235 190.585 195.916 189.47 195.268C188.505 194.669 187.742 193.796 187.278 192.759C186.77 191.594 186.52 190.333 186.545 189.062V178.018C186.516 176.72 186.755 175.43 187.247 174.229C187.682 173.176 188.438 172.287 189.408 171.69C190.544 171.037 191.842 170.718 193.151 170.771C194.446 170.72 195.728 171.038 196.848 171.69C197.81 172.292 198.56 173.18 198.994 174.229C199.482 175.431 199.721 176.721 199.696 178.018V189.062C199.721 190.333 199.47 191.594 198.963 192.759C198.499 193.796 197.736 194.669 196.771 195.268C195.676 195.911 194.421 196.23 193.151 196.186ZM193.151 192.042C193.377 192.062 193.604 192.025 193.812 191.935C194.019 191.845 194.201 191.703 194.34 191.524C194.588 191.155 194.754 190.737 194.826 190.297C194.909 189.852 194.955 189.4 194.965 188.947V178.142C194.962 177.674 194.926 177.207 194.857 176.745C194.793 176.294 194.633 175.862 194.386 175.479C194.243 175.297 194.056 175.152 193.843 175.059C193.631 174.966 193.398 174.928 193.167 174.947C192.933 174.927 192.698 174.966 192.483 175.058C192.267 175.151 192.078 175.296 191.932 175.479C191.671 175.856 191.504 176.29 191.446 176.745C191.377 177.207 191.341 177.674 191.338 178.142V188.947C191.344 189.392 191.385 189.836 191.461 190.274C191.532 190.719 191.709 191.14 191.978 191.501C192.116 191.678 192.295 191.819 192.499 191.912C192.704 192.005 192.927 192.046 193.151 192.034V192.042Z" fill="#263238" style="fill:#263238;fill:color(display-p3 0.1490 0.1961 0.2196);fill-opacity:1;"/>
<path d="M208.247 184.926C206.256 184.926 204.836 184.389 203.987 183.313C203.138 182.238 202.703 180.646 202.683 178.536V177.286C202.683 175.135 203.099 173.558 203.933 172.555C204.759 171.551 206.194 171.05 208.224 171.05C210.254 171.05 211.712 171.536 212.546 172.524C213.379 173.512 213.789 175.063 213.789 177.155V178.582C213.789 180.658 213.372 182.225 212.523 183.29C211.674 184.355 210.269 184.926 208.247 184.926ZM208.247 181.909C208.458 181.928 208.671 181.9 208.87 181.827C209.069 181.754 209.249 181.636 209.397 181.484C209.671 181.135 209.831 180.709 209.852 180.265C209.919 179.65 209.95 179.031 209.945 178.413V177.371C209.974 176.552 209.898 175.732 209.721 174.932C209.567 174.384 209.073 174.114 208.247 174.114C207.421 174.114 206.943 174.384 206.781 174.886C206.589 175.699 206.508 176.535 206.542 177.371V178.467C206.533 179.081 206.569 179.695 206.65 180.303C206.686 180.742 206.85 181.16 207.12 181.507C207.266 181.654 207.443 181.766 207.638 181.836C207.833 181.905 208.041 181.93 208.247 181.909ZM211.226 195.754L218.62 171.112H221.391L213.997 195.754H211.226ZM224.346 195.816C222.34 195.816 220.912 195.284 220.071 194.203C219.23 193.123 218.813 191.548 218.813 189.457V188.176C218.813 186.045 219.222 184.471 220.04 183.452C220.858 182.434 222.294 181.919 224.346 181.909C226.399 181.909 227.835 182.403 228.668 183.383C229.502 184.363 229.919 185.93 229.919 188.06V189.457C229.919 191.564 229.494 193.154 228.638 194.203C227.781 195.253 226.376 195.816 224.37 195.816H224.346ZM224.346 192.806C224.557 192.826 224.768 192.798 224.966 192.724C225.164 192.651 225.342 192.534 225.489 192.382C225.748 192.03 225.905 191.613 225.944 191.178C226.024 190.577 226.06 189.971 226.052 189.364V188.237C226.083 187.415 226.002 186.592 225.813 185.791C225.643 185.251 225.157 185.019 224.346 185.019C223.536 185.019 223.05 185.289 222.888 185.837C222.7 186.633 222.619 187.451 222.649 188.268V189.395C222.642 190.001 222.67 190.606 222.733 191.209C222.766 191.648 222.93 192.068 223.204 192.413C223.359 192.558 223.543 192.668 223.744 192.736C223.945 192.804 224.159 192.828 224.37 192.806H224.346Z" fill="#263238" style="fill:#263238;fill:color(display-p3 0.1490 0.1961 0.2196);fill-opacity:1;"/>
<path d="M180.401 236.072C178.306 236.175 176.223 235.688 174.389 234.668C172.893 233.726 171.763 232.302 171.186 230.631C170.501 228.625 170.174 226.514 170.222 224.395V211.09C170.168 208.99 170.495 206.899 171.186 204.915C171.771 203.275 172.901 201.885 174.389 200.979C176.28 200.085 178.345 199.621 180.436 199.621C182.527 199.621 184.593 200.085 186.483 200.979C187.967 201.892 189.098 203.279 189.694 204.915C190.397 206.896 190.732 208.989 190.682 211.09V224.449C190.725 226.55 190.391 228.641 189.694 230.623C189.095 232.284 187.967 233.702 186.483 234.66C184.631 235.699 182.522 236.189 180.401 236.072ZM180.401 231.287C181.259 231.361 182.113 231.11 182.794 230.585C183.335 230.068 183.697 229.392 183.828 228.655C184.011 227.775 184.098 226.877 184.091 225.977V209.592C184.101 208.693 184.013 207.795 183.828 206.914C183.695 206.198 183.332 205.545 182.794 205.054C182.107 204.541 181.256 204.297 180.401 204.368C179.572 204.311 178.751 204.555 178.086 205.054C177.539 205.541 177.167 206.195 177.029 206.914C176.848 207.795 176.76 208.693 176.766 209.592V225.993C176.761 226.891 176.844 227.788 177.013 228.671C177.129 229.411 177.491 230.091 178.04 230.6C178.717 231.11 179.557 231.355 180.401 231.287Z" fill="#263238" style="fill:#263238;fill:color(display-p3 0.1490 0.1961 0.2196);fill-opacity:1;"/>
<path d="M195.467 235.594V200.022H210.084V204.499H201.965V214.864H208.595V219.386H201.965V235.594H195.467Z" fill="#263238" style="fill:#263238;fill:color(display-p3 0.1490 0.1961 0.2196);fill-opacity:1;"/>
<path d="M213.488 235.594V200.022H228.113V204.499H219.97V214.864H226.608V219.386H219.97V235.594H213.488Z" fill="#263238" style="fill:#263238;fill:color(display-p3 0.1490 0.1961 0.2196);fill-opacity:1;"/>
<path d="M289.57 155.051C289.57 155.051 286.174 155.051 279.591 173.357C278.564 176.198 275.029 180.519 275.029 180.519L285.178 187.682L291.507 157.528L289.57 155.051Z" fill="#FFC727" stroke="#263238" style="fill:#FFC727;fill:color(display-p3 1.0000 0.7804 0.1529);fill-opacity:1;stroke:#263238;stroke:color(display-p3 0.1490 0.1961 0.2196);stroke-opacity:1;" stroke-miterlimit="10"/>
<path d="M302.374 121.841C302.374 121.841 300.707 120.683 301.162 119.587C301.617 118.491 304.836 117.326 307.429 116.5C310.022 115.674 318.319 117.364 321.66 121.385C325.002 125.406 323.15 130.948 322.432 133.325C321.714 135.702 325.975 137.122 327.989 140.17C330.003 143.219 328.684 145.858 328.352 147.155C328.02 148.452 334.379 148.452 335.336 153.268C336.293 158.083 333.276 162.112 333.206 162.645C333.137 163.177 335.521 168.966 334.024 173.203C332.527 177.44 325.89 178.142 323.621 177.525C321.352 176.907 320.333 174.437 320.333 174.437C320.333 174.437 315.038 163.231 309.104 160.237C303.169 157.242 299.001 153.731 299.155 148.305C299.31 142.879 304.272 140.842 304.704 139.329C305.137 137.817 302.374 121.841 302.374 121.841Z" fill="#263238" stroke="#263238" style="fill:#263238;fill:color(display-p3 0.1490 0.1961 0.2196);fill-opacity:1;stroke:#263238;stroke:color(display-p3 0.1490 0.1961 0.2196);stroke-opacity:1;" stroke-miterlimit="10"/>
<path d="M282.415 215.581L282.554 223.569C282.554 223.569 280.239 239.777 280.933 254.162C281.628 268.548 281.204 285.612 281.86 291.054C282.516 296.495 281.566 309.985 281.088 311.753C280.609 313.52 279.621 313.582 277.229 314.902C274.836 316.221 267.767 317.989 267.968 319.424C268.168 320.86 272.745 321.701 275.462 321.369C278.178 321.037 282.693 319.432 283.125 319.401C283.558 319.37 285.217 320.412 285.989 319.061C286.76 317.711 287.216 311.614 287.301 310.742C287.386 309.87 291.885 295.414 292.703 288.291C293.33 282.676 293.379 277.013 292.85 271.389C292.518 268.664 291.491 266.279 291.785 264.242C292.078 262.204 301.046 239.792 301.046 239.792L310.068 268.286C310.068 268.286 310.84 279.816 312.252 283.328C313.665 286.84 315.841 308.349 315.764 309.36C315.323 311.163 314.769 312.937 314.105 314.67C314.105 314.67 309.597 322.635 311.017 324.124C312.437 325.614 317.192 323.993 318.897 321.13C320.603 318.266 320.379 311.097 320.549 309.329C320.719 307.562 324.624 287.827 323.852 280.519C323.08 273.21 320.888 266.719 320.148 262.297C319.407 257.875 320.094 240.355 320.341 237.6C320.587 234.845 321.784 226.965 320.881 222.265C319.978 217.565 318.866 213.883 318.866 213.883L282.84 212.733L282.415 215.581Z" fill="white" stroke="#263238" style="fill:white;fill-opacity:1;stroke:#263238;stroke:color(display-p3 0.1490 0.1961 0.2196);stroke-opacity:1;" stroke-miterlimit="10"/>
<path d="M320.865 222.257C319.97 217.549 318.851 213.876 318.851 213.876L282.824 212.726L282.415 215.581L282.554 223.569C282.554 223.569 280.239 239.776 280.933 254.162C281.628 268.548 281.204 285.612 281.86 291.053C282.059 293.09 282.134 295.136 282.083 297.181C284.949 298.051 287.987 298.192 290.92 297.59C291.726 294.543 292.349 291.45 292.788 288.329C293.415 282.715 293.464 277.051 292.935 271.427C292.603 268.703 291.576 266.318 291.87 264.28C292.163 262.243 301.131 239.83 301.131 239.83L310.153 268.325C310.153 268.325 310.925 279.855 312.337 283.367C313.039 285.118 313.935 291.37 314.652 297.305C316.265 297.868 318.789 298.2 322.532 297.428C323.443 291.254 324.253 284.308 323.852 280.557C323.08 273.249 320.888 266.758 320.148 262.336C319.407 257.913 320.094 240.394 320.34 237.639C320.587 234.883 321.768 226.957 320.865 222.257Z" fill="#263238" stroke="#263238" style="fill:#263238;fill:color(display-p3 0.1490 0.1961 0.2196);fill-opacity:1;stroke:#263238;stroke:color(display-p3 0.1490 0.1961 0.2196);stroke-opacity:1;" stroke-miterlimit="10"/>
<path d="M281.543 316.052L281.18 314.925L279.953 313.852L279.621 313.659C279.05 313.999 278.294 314.338 277.306 314.902C274.937 316.214 267.844 317.989 268.045 319.424C268.245 320.86 272.822 321.701 275.539 321.369C278.255 321.037 282.77 319.432 283.202 319.401C283.635 319.37 285.294 320.412 286.066 319.062C286.498 318.29 286.838 316.083 287.054 314.115C285.3 314.975 283.45 315.625 281.543 316.052Z" fill="white" stroke="#263238" style="fill:white;fill-opacity:1;stroke:#263238;stroke:color(display-p3 0.1490 0.1961 0.2196);stroke-opacity:1;" stroke-miterlimit="10"/>
<path d="M319.468 313.875C319.384 313.413 319.198 312.975 318.923 312.595C318.648 312.214 318.291 311.9 317.879 311.675C316.536 311.05 314.182 314.67 314.182 314.67C314.182 314.67 309.675 322.634 311.095 324.124C312.515 325.613 317.269 323.993 318.974 321.129C320.14 319.154 320.402 315.102 320.518 312.215L319.468 313.875Z" fill="white" stroke="#263238" style="fill:white;fill-opacity:1;stroke:#263238;stroke:color(display-p3 0.1490 0.1961 0.2196);stroke-opacity:1;" stroke-miterlimit="10"/>
<path d="M306.418 147.379C306.418 147.379 305.831 149.648 305.299 151.176C304.766 152.704 304.89 152.897 303.84 153.074C302.79 153.252 289.601 153.846 289.57 155.05C289.539 156.254 286.035 169.367 286.035 169.367C286.035 169.367 285.047 181.322 285.472 184.37C285.896 187.419 285.24 202.754 285.24 202.754L282.4 215.581C282.4 215.581 286.676 220.698 299.881 219.802C313.086 218.907 319.43 216.87 319.43 216.87L316.721 181.923L328.437 158.847L315.216 151.786V140.834L306.418 147.379Z" fill="white" stroke="#263238" style="fill:white;fill-opacity:1;stroke:#263238;stroke:color(display-p3 0.1490 0.1961 0.2196);stroke-opacity:1;" stroke-miterlimit="10"/>
<path d="M297.233 188.862L307.76 192.868" stroke="#263238" style="stroke:#263238;stroke:color(display-p3 0.1490 0.1961 0.2196);stroke-opacity:1;" stroke-miterlimit="10"/>
<path d="M294.733 189.857L299.912 192.366" stroke="#263238" style="stroke:#263238;stroke:color(display-p3 0.1490 0.1961 0.2196);stroke-opacity:1;" stroke-miterlimit="10"/>
<path d="M309.96 212.91C305.377 213.943 300.739 214.716 296.068 215.225" stroke="#263238" style="stroke:#263238;stroke:color(display-p3 0.1490 0.1961 0.2196);stroke-opacity:1;" stroke-miterlimit="10"/>
<path d="M300.907 213.412C298.021 213.671 295.123 213.782 292.225 213.744" stroke="#263238" style="stroke:#263238;stroke:color(display-p3 0.1490 0.1961 0.2196);stroke-opacity:1;" stroke-miterlimit="10"/>
<path d="M315.216 151.77V140.834L306.425 147.379C306.425 147.379 305.839 149.648 305.306 151.176C304.774 152.704 304.897 152.897 303.848 153.074C303.585 153.121 302.435 153.236 300.845 153.406C300.483 156.493 300.297 163.439 306.117 164.643C311.751 165.786 315.98 157.335 317.693 153.105L315.216 151.77Z" fill="white" stroke="#263238" style="fill:white;fill-opacity:1;stroke:#263238;stroke:color(display-p3 0.1490 0.1961 0.2196);stroke-opacity:1;" stroke-miterlimit="10"/>
<path d="M302.929 121.084C301.936 122.636 301.191 124.334 300.722 126.116C300.251 128.485 300.351 131.518 300.236 132.946C300.12 134.374 299.032 137.06 299.927 139.329C300.822 141.598 302.813 147.417 304.457 148.15C306.101 148.883 308.934 148.382 311.488 146.931C314.043 145.48 316.119 140.456 316.304 138.217C316.489 135.979 317.778 133.34 312.939 127.829C308.1 122.319 302.929 121.084 302.929 121.084Z" fill="white" stroke="#263238" style="fill:white;fill-opacity:1;stroke:#263238;stroke:color(display-p3 0.1490 0.1961 0.2196);stroke-opacity:1;" stroke-miterlimit="10"/>
<path d="M305.206 131.117C305.061 131.835 304.822 132.53 304.496 133.186C304.11 133.741 301.532 136.466 301.864 136.651C302.787 136.925 303.725 137.144 304.673 137.307" stroke="#263238" style="stroke:#263238;stroke:color(display-p3 0.1490 0.1961 0.2196);stroke-opacity:1;" stroke-miterlimit="10"/>
<path d="M303.261 139.954C304.438 139.753 305.589 139.424 306.695 138.974C307.492 138.605 308.128 137.961 308.486 137.16C308.486 137.16 307.845 140.247 307.267 141.166C306.688 142.084 303.261 139.954 303.261 139.954Z" stroke="#263238" style="stroke:#263238;stroke:color(display-p3 0.1490 0.1961 0.2196);stroke-opacity:1;" stroke-miterlimit="10"/>
<path d="M303.13 131.951C303.06 132.676 302.713 133.24 302.358 133.201C302.003 133.162 301.787 132.553 301.856 131.82C301.926 131.086 302.273 130.531 302.628 130.569C302.983 130.608 303.199 131.218 303.13 131.951Z" fill="#263238" style="fill:#263238;fill:color(display-p3 0.1490 0.1961 0.2196);fill-opacity:1;"/>
<path d="M309.265 133.07C309.196 133.796 308.849 134.359 308.494 134.328C308.139 134.297 307.922 133.672 307.992 132.947C308.061 132.221 308.409 131.658 308.764 131.689C309.119 131.72 309.335 132.345 309.265 133.07Z" fill="#263238" style="fill:#263238;fill:color(display-p3 0.1490 0.1961 0.2196);fill-opacity:1;"/>
<path d="M301.47 128.825C301.655 128.639 301.876 128.494 302.119 128.4C302.363 128.305 302.624 128.262 302.885 128.275C303.146 128.287 303.402 128.354 303.635 128.471C303.869 128.589 304.075 128.754 304.241 128.956" stroke="#263238" style="stroke:#263238;stroke:color(display-p3 0.1490 0.1961 0.2196);stroke-opacity:1;" stroke-miterlimit="10"/>
<path d="M310.392 130.87C309.304 128.926 307.004 129.504 307.004 129.504" stroke="#263238" style="stroke:#263238;stroke:color(display-p3 0.1490 0.1961 0.2196);stroke-opacity:1;" stroke-miterlimit="10"/>
<path d="M300.058 153.653C300.058 153.653 290.326 174.383 289.57 178.89C288.813 183.398 289.678 189.819 289.23 191.015C288.782 192.211 285.78 216.731 285.664 219.71C285.549 222.689 285.225 227.173 285.225 227.173L278.279 226.162C278.059 221.358 278.48 216.546 279.529 211.853C281.288 203.448 282.5 191.586 282.732 190.398C282.963 189.209 284.761 177.061 284.939 174.923C285.117 172.786 288.867 155.312 289.57 155.05C290.272 154.788 299.155 152.974 300.058 153.653Z" fill="#FFC727" stroke="#263238" style="fill:#FFC727;fill:color(display-p3 1.0000 0.7804 0.1529);fill-opacity:1;stroke:#263238;stroke:color(display-p3 0.1490 0.1961 0.2196);stroke-opacity:1;" stroke-miterlimit="10"/>
<path d="M303.786 179.732C303.786 179.732 277.862 179.354 276.527 180.087C275.5 180.651 274.389 180.913 273.578 181.839C271.186 184.548 271.95 189.048 274.111 191.649C275.917 193.833 279.035 192.42 281.327 191.849C284.283 191.077 287.223 190.228 290.164 189.372C294.959 187.983 299.742 186.555 304.511 185.088L304.874 184.98L303.786 179.732Z" fill="white" stroke="#263238" style="fill:white;fill-opacity:1;stroke:#263238;stroke:color(display-p3 0.1490 0.1961 0.2196);stroke-opacity:1;" stroke-miterlimit="10"/>
<path d="M276.558 180.087C275.531 180.651 274.42 180.913 273.609 181.839C271.217 184.548 271.981 189.048 274.142 191.649C275.948 193.833 279.066 192.42 281.358 191.849L282.184 191.618C280.64 190.553 279.166 189.009 279.228 186.918C279.337 184.385 280.06 181.916 281.335 179.725C278.742 179.786 276.889 179.902 276.558 180.087Z" fill="#FFC727" stroke="#263238" style="fill:#FFC727;fill:color(display-p3 1.0000 0.7804 0.1529);fill-opacity:1;stroke:#263238;stroke:color(display-p3 0.1490 0.1961 0.2196);stroke-opacity:1;" stroke-miterlimit="10"/>
<path d="M319.708 153.908C319.708 153.908 310.169 182.055 309.79 187.403C309.412 192.752 310.47 226.949 310.47 226.949C310.47 226.949 311.427 226.949 318.102 226.749C321.932 226.678 325.637 225.383 328.676 223.052C328.676 223.052 320.703 196.425 320.356 194.535C320.009 192.644 319.044 182.186 319.044 182.186C319.044 182.186 332.874 163.239 332.982 161.742C333.09 160.245 319.708 153.908 319.708 153.908Z" fill="#FFC727" stroke="#263238" style="fill:#FFC727;fill:color(display-p3 1.0000 0.7804 0.1529);fill-opacity:1;stroke:#263238;stroke:color(display-p3 0.1490 0.1961 0.2196);stroke-opacity:1;" stroke-miterlimit="10"/>
<path d="M316.86 182.827L319.723 185.142L320.95 188.824C320.95 188.824 320.819 190.051 320.271 190.182C319.426 190.088 318.603 189.847 317.84 189.472L317.269 189.233C317.269 189.233 318.226 190.73 317.547 190.73C316.867 190.73 315.633 189.364 315.633 189.364L314.406 188.415L310.863 186.91L316.86 182.827Z" fill="white" stroke="#263238" style="fill:white;fill-opacity:1;stroke:#263238;stroke:color(display-p3 0.1490 0.1961 0.2196);stroke-opacity:1;" stroke-miterlimit="10"/>
<path d="M313.819 186.585C313.819 186.585 316.713 187.797 317.308 189.24L313.819 186.585Z" fill="white" style="fill:white;fill-opacity:1;"/>
<path d="M313.819 186.585C313.819 186.585 316.713 187.797 317.308 189.24" stroke="#263238" style="stroke:#263238;stroke:color(display-p3 0.1490 0.1961 0.2196);stroke-opacity:1;" stroke-miterlimit="10"/>
<path d="M315.363 185.135C315.363 185.135 319.322 187.18 320.248 189.765L315.363 185.135Z" fill="white" style="fill:white;fill-opacity:1;"/>
<path d="M315.363 185.135C315.363 185.135 319.322 187.18 320.248 189.765" stroke="#263238" style="stroke:#263238;stroke:color(display-p3 0.1490 0.1961 0.2196);stroke-opacity:1;" stroke-miterlimit="10"/>
<path d="M316.489 184.077C316.489 184.077 319.576 185.86 320.448 187.45L316.489 184.077Z" fill="white" style="fill:white;fill-opacity:1;"/>
<path d="M316.489 184.077C316.489 184.077 319.576 185.86 320.448 187.45" stroke="#263238" style="stroke:#263238;stroke:color(display-p3 0.1490 0.1961 0.2196);stroke-opacity:1;" stroke-miterlimit="10"/>
<path d="M321.089 159.789L308.27 182.695C308.27 182.695 310.454 187.874 311.272 188.283C312.09 188.692 319.044 182.148 319.044 182.148L327.225 170.571" fill="#FFC727" style="fill:#FFC727;fill:color(display-p3 1.0000 0.7804 0.1529);fill-opacity:1;"/>
<path d="M321.089 159.789L308.27 182.695C308.27 182.695 310.454 187.874 311.272 188.283C312.09 188.692 319.044 182.148 319.044 182.148L327.225 170.571" stroke="#263238" style="stroke:#263238;stroke:color(display-p3 0.1490 0.1961 0.2196);stroke-opacity:1;" stroke-miterlimit="10"/>
<path d="M321.082 128.864L309.266 139.33L312.824 144.717L324.74 134.244L321.082 128.864Z" fill="#FFC727" stroke="#263238" style="fill:#FFC727;fill:color(display-p3 1.0000 0.7804 0.1529);fill-opacity:1;stroke:#263238;stroke:color(display-p3 0.1490 0.1961 0.2196);stroke-opacity:1;" stroke-miterlimit="10"/>
<path d="M314.506 149.17C314.323 148.087 314.248 146.988 314.282 145.89C314.452 145.242 316.289 141.082 316.289 141.082C316.289 141.082 313.317 137.994 313.279 137.47C313.24 136.945 313.888 136.999 314.321 137.184C315.424 138.045 316.48 138.965 317.485 139.939L315.625 136.034C315.006 135.326 314.424 134.587 313.881 133.819C313.518 133.202 314.876 132.901 315.324 133.186C316.336 134.055 317.256 135.025 318.071 136.08C318.542 136.791 319.522 138.735 319.522 138.735C319.522 138.735 318.619 134.768 317.686 133.557C316.752 132.345 316.783 131.18 317.423 131.241C318.064 131.303 320.14 133.711 320.387 134.22C320.634 134.73 321.645 137.107 321.645 137.107C321.645 137.107 320.533 131.766 320.379 131.041C320.225 130.315 321.29 130.338 321.791 131.473C322.406 133.603 322.906 135.765 323.289 137.948C323.289 137.948 322.27 141.63 321.745 142.193C321.22 142.756 317.3 150.142 317.3 150.142C317.3 150.142 314.83 182.611 314.629 184.101C314.058 188.176 310.832 189.14 308.833 189.38C306.834 189.619 303.269 188.808 302.08 183.792C300.892 178.775 304.496 167.916 306.927 163.077C309.358 158.238 314.506 149.17 314.506 149.17Z" fill="white" stroke="#263238" style="fill:white;fill-opacity:1;stroke:#263238;stroke:color(display-p3 0.1490 0.1961 0.2196);stroke-opacity:1;" stroke-miterlimit="10"/>
<path d="M310.593 178.913C308.015 179.631 304.295 177.555 302.458 176.374C301.887 179.23 301.687 181.885 302.111 183.737C303.3 188.754 306.858 189.572 308.864 189.325C310.871 189.078 314.089 188.121 314.66 184.046C314.722 183.606 314.984 180.333 315.332 175.988C313.97 177.279 312.357 178.275 310.593 178.913Z" fill="#FFC727" stroke="#263238" style="fill:#FFC727;fill:color(display-p3 1.0000 0.7804 0.1529);fill-opacity:1;stroke:#263238;stroke:color(display-p3 0.1490 0.1961 0.2196);stroke-opacity:1;" stroke-miterlimit="10"/>
<path d="M122.371 148.596C143.674 127.293 143.674 92.7541 122.371 71.4512C101.069 50.1484 66.5298 50.1484 45.227 71.4512C23.9242 92.7541 23.9242 127.293 45.227 148.596C66.5298 169.898 101.069 169.898 122.371 148.596Z" fill="white" style="fill:white;fill-opacity:1;"/>
<path d="M83.829 56.2467C94.4674 56.2452 104.867 59.3985 113.713 65.3079C122.56 71.2173 129.455 79.6174 133.526 89.4457C137.598 99.274 138.664 110.089 136.589 120.523C134.514 130.957 129.391 140.541 121.869 148.064C114.346 155.586 104.762 160.709 94.3278 162.784C83.8938 164.859 73.0787 163.793 63.2504 159.722C53.4221 155.65 45.0221 148.755 39.1127 139.909C33.2033 131.063 30.0499 120.663 30.0514 110.024C30.0514 95.7616 35.7173 82.083 45.8025 71.9978C55.8878 61.9125 69.5663 56.2467 83.829 56.2467ZM83.829 54.7031C72.8853 54.7016 62.187 57.9455 53.0871 64.0245C43.9871 70.1035 36.8943 78.7446 32.7056 88.855C28.5169 98.9653 27.4206 110.091 29.5552 120.824C31.6898 131.558 36.9596 141.417 44.6979 149.155C52.4362 156.894 62.2956 162.163 73.0291 164.298C83.7625 166.433 94.888 165.336 104.998 161.148C115.109 156.959 123.75 149.866 129.829 140.766C135.908 131.666 139.152 120.968 139.15 110.024C139.134 95.3572 133.3 81.2955 122.929 70.9244C112.558 60.5532 98.4961 54.7195 83.829 54.7031Z" fill="#263238" style="fill:#263238;fill:color(display-p3 0.1490 0.1961 0.2196);fill-opacity:1;"/>
<path d="M83.829 163.81C97.5831 163.822 110.816 158.547 120.79 149.076C119.992 148.081 118.972 147.288 117.81 146.761C116.267 146.074 114.121 145.156 111.027 143.944C101.703 140.301 90.4895 131.997 90.4895 131.997L68.7793 126.023C68.7793 126.023 67.7606 126.463 65.4298 129.373C63.7705 131.449 49.4231 138.835 41.2886 142.918C46.3061 149.425 52.7513 154.693 60.127 158.315C67.5027 161.938 75.6119 163.817 83.829 163.81Z" fill="#263238" stroke="#263238" style="fill:#263238;fill:color(display-p3 0.1490 0.1961 0.2196);fill-opacity:1;stroke:#263238;stroke:color(display-p3 0.1490 0.1961 0.2196);stroke-opacity:1;" stroke-miterlimit="10"/>
<path d="M71.0174 143.412C75.648 150.319 87.7804 156.601 93.9315 152.442C97.4971 150.034 97.7904 142.964 96.432 136.103C92.8896 133.788 90.4585 132.005 90.4585 132.005L68.7483 126.031C68.7483 126.031 67.7296 126.471 65.3988 129.381C65.0675 129.726 64.6971 130.032 64.2952 130.291C66.0454 134.899 68.2998 139.299 71.0174 143.412Z" fill="white" stroke="#263238" style="fill:white;fill-opacity:1;stroke:#263238;stroke:color(display-p3 0.1490 0.1961 0.2196);stroke-opacity:1;" stroke-miterlimit="10"/>
<path d="M87.2556 141.745L93.6614 130.963L88.8532 126.741L87.2556 141.745Z" fill="white" stroke="#263238" style="fill:white;fill-opacity:1;stroke:#263238;stroke:color(display-p3 0.1490 0.1961 0.2196);stroke-opacity:1;" stroke-miterlimit="10"/>
<path d="M93.6615 130.963L98.763 142.617L90.312 136.497L93.6615 130.963Z" fill="white" stroke="#263238" style="fill:white;fill-opacity:1;stroke:#263238;stroke:color(display-p3 0.1490 0.1961 0.2196);stroke-opacity:1;" stroke-miterlimit="10"/>
<path d="M70.5002 102.554L71.519 119.888L87.2556 141.745L91.7705 121.786L70.6469 99.2041L70.5002 102.554Z" fill="white" stroke="#263238" style="fill:white;fill-opacity:1;stroke:#263238;stroke:color(display-p3 0.1490 0.1961 0.2196);stroke-opacity:1;" stroke-miterlimit="10"/>
<path d="M81.7683 119.688L89.8257 130.809L91.7474 123.137L81.7683 119.688Z" fill="#263238" stroke="#263238" style="fill:#263238;fill:color(display-p3 0.1490 0.1961 0.2196);fill-opacity:1;stroke:#263238;stroke:color(display-p3 0.1490 0.1961 0.2196);stroke-opacity:1;" stroke-miterlimit="10"/>
<path d="M70.0605 117.411L84.6317 133.881L74.8687 145.095L65.9778 127.028L70.0605 117.411Z" fill="white" stroke="#263238" style="fill:white;fill-opacity:1;stroke:#263238;stroke:color(display-p3 0.1490 0.1961 0.2196);stroke-opacity:1;" stroke-miterlimit="10"/>
<path d="M84.6316 133.881L87.2557 141.745L82.5864 136.351L84.6316 133.881Z" fill="white" stroke="#263238" style="fill:white;fill-opacity:1;stroke:#263238;stroke:color(display-p3 0.1490 0.1961 0.2196);stroke-opacity:1;" stroke-miterlimit="10"/>
<path d="M69.1652 95.9942C69.1652 95.9942 67.5599 92.3591 66.5411 85.3591C65.5224 78.359 70.9094 69.1517 79.507 69.6302C88.1046 70.1087 98.4465 73.4196 100.777 77.348C103.108 81.2764 104.127 82.4495 104.273 85.9456C104.42 89.4418 103.695 101.381 104.713 105.611C105.732 109.84 104.42 118.291 99.6119 121.494C94.8037 124.697 91.4542 124.581 86.0594 122.513C80.6647 120.444 77.4695 115.374 74.8455 111.152C72.2214 106.93 70.0373 102.114 69.744 100.802C69.4507 99.4903 69.1652 95.9942 69.1652 95.9942Z" fill="white" stroke="#263238" style="fill:white;fill-opacity:1;stroke:#263238;stroke:color(display-p3 0.1490 0.1961 0.2196);stroke-opacity:1;" stroke-miterlimit="10"/>
<path d="M94.5336 86.9639C94.2485 88.452 94.1038 89.9636 94.1014 91.4788C94.248 92.7908 97.011 101.967 97.3043 103.827C97.5976 105.687 93.6615 106.451 91.4774 104.846C89.2932 103.241 89.7254 102.075 89.7254 102.075" stroke="#263238" style="stroke:#263238;stroke:color(display-p3 0.1490 0.1961 0.2196);stroke-opacity:1;" stroke-miterlimit="10"/>
<path d="M84.7783 104.885C84.7783 104.885 84.9172 110.133 91.7706 110.565" stroke="#263238" style="stroke:#263238;stroke:color(display-p3 0.1490 0.1961 0.2196);stroke-opacity:1;" stroke-miterlimit="10"/>
<path d="M86.0825 104.159L82.8796 105.471" stroke="#263238" style="stroke:#263238;stroke:color(display-p3 0.1490 0.1961 0.2196);stroke-opacity:1;" stroke-miterlimit="10"/>
<path d="M88.5601 86.0917C88.5601 86.0917 84.1918 82.5955 79.0903 87.1104" stroke="#263238" style="stroke:#263238;stroke:color(display-p3 0.1490 0.1961 0.2196);stroke-opacity:1;" stroke-miterlimit="10"/>
<path d="M95.9922 86.3855C95.9922 86.3855 99.9283 84.3403 102.552 87.6975" stroke="#263238" style="stroke:#263238;stroke:color(display-p3 0.1490 0.1961 0.2196);stroke-opacity:1;" stroke-miterlimit="10"/>
<path d="M85.9436 92.9371C85.9436 94.141 85.4188 95.1212 84.7782 95.1212C84.1376 95.1212 83.6128 94.141 83.6128 92.9371C83.6128 91.7331 84.1299 90.7529 84.7782 90.7529C85.4265 90.7529 85.9436 91.7022 85.9436 92.9371Z" fill="#263238" style="fill:#263238;fill:color(display-p3 0.1490 0.1961 0.2196);fill-opacity:1;"/>
<path d="M100.654 92.4742C100.654 93.6859 100.137 94.666 99.4884 94.666C98.8401 94.666 98.323 93.6859 98.323 92.4742C98.323 91.2625 98.8478 90.29 99.4884 90.29C100.129 90.29 100.654 91.2934 100.654 92.4742Z" fill="#263238" style="fill:#263238;fill:color(display-p3 0.1490 0.1961 0.2196);fill-opacity:1;"/>
<path d="M67.8762 96.4332C67.8762 96.4332 70.6392 96.1399 70.7858 93.9558C70.9324 91.7717 69.3348 89.7342 70.9324 88.4221C72.53 87.1101 76.6127 87.9822 75.7406 83.4673C74.8685 78.9524 71.2257 76.475 75.0151 74.9778C78.8046 73.4805 83.7517 75.1244 88.2743 78.7672C92.7969 82.41 93.808 76.5831 93.808 76.5831C93.808 76.5831 98.9094 82.9888 102.691 84.3008C106.473 85.6129 108.233 84.3008 107.939 80.5191C107.646 76.7374 104.003 73.8124 104.003 73.8124C104.003 73.8124 106.319 75.1244 106.048 69.7374C105.778 64.3504 103.131 62.7451 100.507 64.0494C97.883 65.3537 94.5334 67.26 90.7517 65.8013C86.97 64.3426 74.4286 61.8652 66.4175 64.3426C58.4065 66.8201 57.6733 78.1884 60.7372 84.4475C63.8012 90.7066 66.4175 96.248 66.4175 96.248L67.8762 96.4332Z" fill="#FFC727" stroke="#263238" style="fill:#FFC727;fill:color(display-p3 1.0000 0.7804 0.1529);fill-opacity:1;stroke:#263238;stroke:color(display-p3 0.1490 0.1961 0.2196);stroke-opacity:1;" stroke-miterlimit="10"/>
<path d="M71.9513 97.3062C71.9513 97.3062 67.0042 91.4793 64.8124 93.8101C62.6205 96.1409 64.5268 101.242 67.0042 103.72C69.4816 106.197 72.9778 105.178 72.9778 105.178" stroke="#263238" style="stroke:#263238;stroke:color(display-p3 0.1490 0.1961 0.2196);stroke-opacity:1;" stroke-miterlimit="10"/>
<path d="M68.0184 106.687C71.7922 105.42 73.7247 101.038 72.3347 96.9003C70.9447 92.7628 66.7586 90.4366 62.9847 91.7044C59.2109 92.9722 57.2784 97.3541 58.6684 101.492C60.0584 105.629 64.2445 107.955 68.0184 106.687Z" fill="#263238" stroke="#263238" style="fill:#263238;fill:color(display-p3 0.1490 0.1961 0.2196);fill-opacity:1;stroke:#263238;stroke:color(display-p3 0.1490 0.1961 0.2196);stroke-opacity:1;" stroke-miterlimit="10"/>
<path d="M63.6469 92.8994C62.1721 87.3684 61.6656 81.6239 62.1497 75.9202C62.9214 66.0955 68.5554 63.4328 71.9744 62.8926L75.3857 63.5332C75.3857 63.5332 70.4772 63.7493 67.1662 70.2631C63.8553 76.7769 64.8509 88.3073 66.3944 94.1882L63.6469 92.8994Z" fill="#263238" stroke="#263238" style="fill:#263238;fill:color(display-p3 0.1490 0.1961 0.2196);fill-opacity:1;stroke:#263238;stroke:color(display-p3 0.1490 0.1961 0.2196);stroke-opacity:1;" stroke-miterlimit="10"/>
<path d="M68.1309 105.494C68.1309 105.494 77.0989 115.527 91.1916 117.133" stroke="#263238" style="stroke:#263238;stroke:color(display-p3 0.1490 0.1961 0.2196);stroke-opacity:1;" stroke-miterlimit="10"/>
<path d="M93.7541 117.024C93.7541 117.734 92.8897 118.313 91.8324 118.313C90.775 118.313 89.9106 117.734 89.9106 117.024C89.9106 116.314 90.7673 115.743 91.8324 115.743C92.8974 115.743 93.7541 116.322 93.7541 117.024Z" fill="#263238" stroke="#263238" style="fill:#263238;fill:color(display-p3 0.1490 0.1961 0.2196);fill-opacity:1;stroke:#263238;stroke:color(display-p3 0.1490 0.1961 0.2196);stroke-opacity:1;" stroke-miterlimit="10"/>
<path d="M57.65 223.429C57.65 223.429 55.8441 228.384 52.016 229.056C48.188 229.727 41.4272 222.303 45.7106 218.467C49.994 214.631 55.8441 220.721 57.65 223.429Z" fill="#FFC727" stroke="#263238" style="fill:#FFC727;fill:color(display-p3 1.0000 0.7804 0.1529);fill-opacity:1;stroke:#263238;stroke:color(display-p3 0.1490 0.1961 0.2196);stroke-opacity:1;" stroke-linecap="round" stroke-linejoin="round"/>
<path d="M63.5079 199.095C63.5079 199.095 57.874 212.833 60.1276 219.593C62.3812 226.354 76.3349 231.309 80.4022 222.526C84.4695 213.743 75.4474 201.348 72.067 198.64C68.6866 195.931 64.6347 196.841 63.5079 199.095Z" fill="#FFC727" stroke="#263238" style="fill:#FFC727;fill:color(display-p3 1.0000 0.7804 0.1529);fill-opacity:1;stroke:#263238;stroke:color(display-p3 0.1490 0.1961 0.2196);stroke-opacity:1;" stroke-linecap="round" stroke-linejoin="round"/>
<path d="M96.4011 204.953C96.4011 204.953 86.7153 213.736 85.5962 222.526C84.4771 231.317 90.9987 234.466 97.7595 233.331C104.52 232.197 107.901 215.079 105.871 207.199C103.841 199.319 96.4011 204.953 96.4011 204.953Z" fill="#FFC727" stroke="#263238" style="fill:#FFC727;fill:color(display-p3 1.0000 0.7804 0.1529);fill-opacity:1;stroke:#263238;stroke:color(display-p3 0.1490 0.1961 0.2196);stroke-opacity:1;" stroke-linecap="round" stroke-linejoin="round"/>
<path d="M98.1993 253.614C98.1993 253.614 87.3944 254.07 86.9391 259.248C86.4837 264.427 91.6701 265.554 96.8487 261.054C102.027 256.555 102.707 253.838 98.1993 253.614Z" fill="#FFC727" stroke="#263238" style="fill:#FFC727;fill:color(display-p3 1.0000 0.7804 0.1529);fill-opacity:1;stroke:#263238;stroke:color(display-p3 0.1490 0.1961 0.2196);stroke-opacity:1;" stroke-linecap="round" stroke-linejoin="round"/>
<path d="M87.1167 260.483C87.1167 260.483 95.6063 256.585 99.4652 255.906" stroke="#263238" style="stroke:#263238;stroke:color(display-p3 0.1490 0.1961 0.2196);stroke-opacity:1;" stroke-linecap="round" stroke-linejoin="round"/>
<path d="M71.3956 264.426C71.3956 264.426 70.2688 269.828 66.2092 271.866C62.1496 273.903 54.9412 269.612 58.777 263.075C62.6127 256.538 69.3658 261.725 71.3956 264.426Z" fill="#FFC727" stroke="#263238" style="fill:#FFC727;fill:color(display-p3 1.0000 0.7804 0.1529);fill-opacity:1;stroke:#263238;stroke:color(display-p3 0.1490 0.1961 0.2196);stroke-opacity:1;" stroke-linecap="round" stroke-linejoin="round"/>
<path d="M61.9257 247.532C61.9257 247.532 59.9037 243.025 52.0161 245.989C44.1285 248.952 40.9796 253.421 45.9345 254.995C50.8893 256.57 61.9257 247.532 61.9257 247.532Z" fill="#FFC727" stroke="#263238" style="fill:#FFC727;fill:color(display-p3 1.0000 0.7804 0.1529);fill-opacity:1;stroke:#263238;stroke:color(display-p3 0.1490 0.1961 0.2196);stroke-opacity:1;" stroke-linecap="round" stroke-linejoin="round"/>
<path d="M60.4207 247.324C60.4207 247.324 52.0624 248.227 47.5552 252.071" stroke="#263238" style="stroke:#263238;stroke:color(display-p3 0.1490 0.1961 0.2196);stroke-opacity:1;" stroke-linecap="round" stroke-linejoin="round"/>
<path d="M84.4617 193.461C84.4617 193.461 85.8123 196.618 88.5135 195.939C91.2147 195.26 91.8939 191.208 96.1773 192.335C100.461 193.461 104.057 198.416 104.057 196.193C104.057 193.971 98.6547 188.082 92.5731 188.082C86.4915 188.082 84.6855 190.529 84.4617 193.461Z" fill="#FFC727" stroke="#263238" style="fill:#FFC727;fill:color(display-p3 1.0000 0.7804 0.1529);fill-opacity:1;stroke:#263238;stroke:color(display-p3 0.1490 0.1961 0.2196);stroke-opacity:1;" stroke-linecap="round" stroke-linejoin="round"/>
<path d="M79.0362 283.713C79.0362 283.713 80.0472 264.859 79.0362 253.074C78.0252 241.289 73.3173 227.489 73.3173 227.489L67.6216 202.175" stroke="#263238" style="stroke:#263238;stroke:color(display-p3 0.1490 0.1961 0.2196);stroke-opacity:1;" stroke-linecap="round" stroke-linejoin="round"/>
<path d="M81.3899 283.714C81.3899 283.714 81.7295 268.224 83.0801 258.129C84.4307 248.034 89.81 232.205 89.81 232.205L99.928 210.557" stroke="#263238" style="stroke:#263238;stroke:color(display-p3 0.1490 0.1961 0.2196);stroke-opacity:1;" stroke-linecap="round" stroke-linejoin="round"/>
<path d="M87.1167 260.482C87.1167 260.482 84.7627 261.154 83.4121 284.045" stroke="#263238" style="stroke:#263238;stroke:color(display-p3 0.1490 0.1961 0.2196);stroke-opacity:1;" stroke-linecap="round" stroke-linejoin="round"/>
<path d="M75.6712 283.373C75.6712 283.373 76.3427 271.256 74.9998 266.88C73.6569 262.504 71.3956 264.426 71.3956 264.426C71.3956 264.426 65.1596 265.159 62.906 268.771" stroke="#263238" style="stroke:#263238;stroke:color(display-p3 0.1490 0.1961 0.2196);stroke-opacity:1;" stroke-linecap="round" stroke-linejoin="round"/>
<path d="M77.2146 262.266C78.982 272.137 77.3535 283.05 77.3535 283.05" stroke="#263238" style="stroke:#263238;stroke:color(display-p3 0.1490 0.1961 0.2196);stroke-opacity:1;" stroke-linecap="round" stroke-linejoin="round"/>
<path d="M61.9258 247.532C61.9258 247.532 71.627 245.672 75.6712 256.446C76.0716 257.524 76.4092 258.624 76.6822 259.741" stroke="#263238" style="stroke:#263238;stroke:color(display-p3 0.1490 0.1961 0.2196);stroke-opacity:1;" stroke-linecap="round" stroke-linejoin="round"/>
<path d="M102.413 237.098C102.413 237.098 104.443 232.59 112.331 235.515C120.218 238.44 123.367 242.955 118.412 244.53C113.457 246.104 102.413 237.098 102.413 237.098Z" fill="#FFC727" stroke="#263238" style="fill:#FFC727;fill:color(display-p3 1.0000 0.7804 0.1529);fill-opacity:1;stroke:#263238;stroke:color(display-p3 0.1490 0.1961 0.2196);stroke-opacity:1;" stroke-linecap="round" stroke-linejoin="round"/>
<path d="M104.219 237.391C104.219 237.391 112.346 236.944 116.182 241.682" stroke="#263238" style="stroke:#263238;stroke:color(display-p3 0.1490 0.1961 0.2196);stroke-opacity:1;" stroke-linecap="round" stroke-linejoin="round"/>
<path d="M93.7925 239.065C91.4008 240.787 89.6108 243.217 88.6756 246.011C84.6392 256.816 85.0945 283.381 85.0945 283.381" stroke="#263238" style="stroke:#263238;stroke:color(display-p3 0.1490 0.1961 0.2196);stroke-opacity:1;" stroke-linecap="round" stroke-linejoin="round"/>
<path d="M102.413 237.098C100.134 236.778 97.8105 237.093 95.6987 238.009" stroke="#263238" style="stroke:#263238;stroke:color(display-p3 0.1490 0.1961 0.2196);stroke-opacity:1;" stroke-linecap="round" stroke-linejoin="round"/>
<path d="M68.2698 230.298C70.8081 233.361 72.7481 236.875 73.9887 240.655C79.3911 256.145 81.39 276.01 80.3867 283.412" stroke="#263238" style="stroke:#263238;stroke:color(display-p3 0.1490 0.1961 0.2196);stroke-opacity:1;" stroke-linecap="round" stroke-linejoin="round"/>
<path d="M67.1045 229.017C62.3426 224.155 57.6502 223.43 57.6502 223.43C57.6502 223.43 50.7042 221.593 48.0029 224.07" stroke="#263238" style="stroke:#263238;stroke:color(display-p3 0.1490 0.1961 0.2196);stroke-opacity:1;" stroke-linecap="round" stroke-linejoin="round"/>
<path d="M81.9533 244.792C81.6214 264.333 81.3899 283.713 81.3899 283.713" stroke="#263238" style="stroke:#263238;stroke:color(display-p3 0.1490 0.1961 0.2196);stroke-opacity:1;" stroke-linecap="round" stroke-linejoin="round"/>
<path d="M81.9919 242.361C82.2158 229.434 82.4782 216.785 82.7637 209.985C83.4352 192.481 84.4848 193.462 84.4848 193.462C84.4848 193.462 85.7274 189.533 92.7274 189.981" stroke="#263238" style="stroke:#263238;stroke:color(display-p3 0.1490 0.1961 0.2196);stroke-opacity:1;" stroke-linecap="round" stroke-linejoin="round"/>
<path d="M92.1794 318.05H70.2763C69.5515 318.05 68.8525 317.78 68.3149 317.294C67.7773 316.808 67.4394 316.139 67.3667 315.418L64.2256 283.042H98.2225L95.0813 315.418C95.0088 316.138 94.672 316.805 94.136 317.292C93.6001 317.778 92.903 318.048 92.1794 318.05Z" fill="#263238" stroke="#263238" style="fill:#263238;fill:color(display-p3 0.1490 0.1961 0.2196);fill-opacity:1;stroke:#263238;stroke:color(display-p3 0.1490 0.1961 0.2196);stroke-opacity:1;" stroke-linecap="round" stroke-linejoin="round"/>
<path d="M65.2366 293.477L65.5993 297.181H96.8564L97.2114 293.477H65.2366Z" fill="white" stroke="#263238" style="fill:white;fill-opacity:1;stroke:#263238;stroke:color(display-p3 0.1490 0.1961 0.2196);stroke-opacity:1;" stroke-linecap="round" stroke-linejoin="round"/>
<path d="M96.0693 305.254L96.2623 303.239H66.186L66.379 305.254H96.0693Z" fill="white" stroke="#263238" style="fill:white;fill-opacity:1;stroke:#263238;stroke:color(display-p3 0.1490 0.1961 0.2196);stroke-opacity:1;" stroke-linecap="round" stroke-linejoin="round"/>
</svg>
